<?xml version="1.0" encoding="utf-8"?>
<!-- Generator: Adobe Illustrator 26.0.2, SVG Export Plug-In . SVG Version: 6.00 Build 0)  -->
<svg version="1.1" xmlns="http://www.w3.org/2000/svg" xmlns:xlink="http://www.w3.org/1999/xlink" x="0px" y="0px"
	 viewBox="0 0 434 320" style="enable-background:new 0 0 434 320;" xml:space="preserve">
<style type="text/css">
	.st0{fill:#02687F;}
	.st1{font-family:'Roboto-Light';}
	.st2{font-size:21.6113px;}
	.st3{font-family:'Roboto-Black';}
	.st4{font-size:26.3277px;}
	.st5{opacity:0.86;fill:#CBECE5;}
	.st6{fill:#CBECE5;}
	.st7{fill:#53C7B4;}
	.st8{fill:#44275D;}
	.st9{fill:#FFFFFF;}
	.st10{fill:#008196;}
	.st11{fill:#FAF4DA;}
	.st12{fill:none;stroke:#008196;stroke-linecap:round;stroke-miterlimit:10;}
	.st13{opacity:0.74;fill:#02687F;}
	.st14{fill:none;stroke:#FFFFFF;stroke-linecap:round;stroke-miterlimit:10;}
	.st15{fill:none;stroke:#FFFFFF;stroke-width:0.75;stroke-linecap:round;stroke-miterlimit:10;}
</style>
<g id="BACKGROUND">
</g>
<g id="OBJECTS">
	<g>
		<g>
			<text transform="matrix(1 0 0 1 147.9583 271.9655)" class="st0 st1 st2">WE´RE MAKING</text>
			<text transform="matrix(1 0 0 1 123.7318 299.989)" class="st0 st3 st4">SOME CHANGES</text>
		</g>
		<g>
			<g>
				<path class="st5" d="M168.04,241.81l185.53-0.52c15.88,0,41.06-6.32,50.72-18.19c20.68-25.41,34.67-90.1-34.78-115.22
					c-91.82-33.21-43.56-95-124.41-95c-82.14,0-59.02,47.34-87.12,49.67c-11.97,0.99-28.19,0.93-44.13,0.43
					c-25.36-0.79-45.28,19.91-41.23,42.99c1.17,6.66,1.45,12.76,0.13,17.22c-5.64,19.06-44.13,10.03-51.86,55.99
					c-5.52,32.86,20.77,62.63,50.72,62.63C101.75,241.81,168.04,241.81,168.04,241.81z"/>
				
					<ellipse transform="matrix(0.8561 -0.5167 0.5167 0.8561 -52.0417 32.0295)" class="st6" cx="31.51" cy="109.48" rx="18.67" ry="18.67"/>
				
					<ellipse transform="matrix(0.3319 -0.9433 0.9433 0.3319 197.8521 386.3045)" class="st6" cx="371.66" cy="53.47" rx="32.47" ry="32.47"/>
			</g>
			<g>
				<polygon class="st7" points="343.68,36.79 343.68,36.79 343.68,36.79 				"/>
				<path class="st7" d="M350.51,52.5c-0.66-4.24-2.08-8.14-4.08-11.62c-0.89-1.54-3.12-1.56-4.07-0.06l-5.1,8.02l5.89,3.75
					c0.49,0.31,0.63,0.96,0.32,1.44c-0.31,0.49-0.96,0.63-1.44,0.32l-5.89-3.75l-2.32,3.64l5.89,3.75c0.49,0.31,0.63,0.96,0.32,1.44
					c-0.31,0.49-0.96,0.63-1.44,0.32l-5.88-3.75l-1.79,2.81l5.88,3.75c0.49,0.31,0.63,0.96,0.32,1.44
					c-0.31,0.49-0.96,0.63-1.44,0.32l-5.88-3.75l-2.1,3.29c-1.5,2.36-3.71,4.24-6.36,5.15c-3.56,1.22-7.35,0.76-10.46-1.22
					l-26.75-17.01l1.12-1.76L304.07,61l7.72-12.14c-0.22,0.02-0.44-0.03-0.63-0.16l-6.76-4.31c-0.49-0.31-0.63-0.96-0.32-1.44
					c0.31-0.49,0.96-0.63,1.44-0.32l6.76,4.31c0.2,0.12,0.33,0.3,0.41,0.51l2.01-3.15c-0.21,0.01-0.43-0.03-0.63-0.16l-6.76-4.31
					c-0.49-0.31-0.63-0.96-0.32-1.44c0.31-0.49,0.96-0.63,1.44-0.32l6.76,4.31c0.19,0.12,0.33,0.3,0.41,0.5l2.53-3.98
					c-0.21,0.01-0.43-0.04-0.62-0.16l-6.76-4.31c-0.49-0.31-0.63-0.96-0.32-1.44c0.31-0.49,0.96-0.63,1.44-0.32l6.76,4.31
					c0.19,0.12,0.33,0.3,0.41,0.49l6.95-10.93c0.4-0.63,0.06-1.45-0.66-1.63c-5.42-1.36-11.28-1.4-17.11,0.18
					c-16.82,4.56-27.5,21.51-24.37,38.65c0.75,4.13,2.22,7.93,4.25,11.31c-0.55,0.62-1.06,1.3-1.52,2.02l-57.11,89.6
					c-4.49,7.04-3.11,16.51,3.51,21.6c7.57,5.82,18.31,3.81,23.32-4.06l57.3-89.9c0.59-0.92,1.07-1.89,1.45-2.87
					c3.77,0.23,7.66-0.17,11.53-1.3C342.8,85.42,353.12,69.17,350.51,52.5z"/>
			</g>
			<g>
				<path class="st7" d="M191.3,109.09l-14.94-2.49c-1.46-0.24-2.69-1.22-3.26-2.59l-2.51-6.05c-0.57-1.37-0.39-2.93,0.47-4.13
					l8.81-12.33c1.22-1.71,1.03-4.04-0.46-5.53l-7.16-7.16c-1.48-1.48-3.82-1.68-5.52-0.46l-12.33,8.81
					c-1.2,0.86-2.77,1.04-4.13,0.47l-6.05-2.51c-1.37-0.57-2.35-1.8-2.59-3.26l-2.49-14.95c-0.34-2.07-2.13-3.58-4.23-3.58h-10.13
					c-2.1,0-3.89,1.52-4.23,3.58l-2.49,14.94c-0.24,1.46-1.22,2.69-2.59,3.26l-6.05,2.51c-1.37,0.57-2.93,0.39-4.13-0.47
					l-12.33-8.81c-1.71-1.22-4.04-1.03-5.52,0.46l-7.16,7.16c-1.48,1.48-1.68,3.82-0.46,5.52l8.81,12.33
					c0.86,1.2,1.04,2.77,0.47,4.13l-2.51,6.05c-0.57,1.37-1.8,2.35-3.26,2.59l-14.94,2.49c-2.07,0.34-3.58,2.13-3.58,4.23v10.13
					c0,2.1,1.52,3.89,3.58,4.23l14.44,2.41c1.56,0.26,2.88,1.35,3.35,2.86c0.68,2.17,1.5,4.27,2.48,6.28
					c0.67,1.37,0.48,3.01-0.41,4.25l-8.43,11.8c-1.22,1.71-1.03,4.04,0.46,5.52l7.16,7.16c1.48,1.48,3.82,1.68,5.52,0.46l11.51-8.22
					c1.27-0.91,2.96-1.08,4.35-0.36c2.12,1.1,4.34,2.03,6.63,2.79c1.48,0.49,2.53,1.81,2.79,3.34l2.31,13.88
					c0.34,2.07,2.13,3.58,4.23,3.58h10.13c2.1,0,3.89-1.52,4.23-3.58l2.31-13.88c0.26-1.54,1.31-2.85,2.79-3.34
					c2.3-0.76,4.51-1.69,6.63-2.79c1.39-0.72,3.07-0.55,4.35,0.36c2.95,2.11,8.22,5.87,11.53,8.23c1.71,1.22,4.03,1.02,5.51-0.46
					l7.16-7.16c1.48-1.48,1.68-3.82,0.46-5.52l-8.43-11.8c-0.89-1.24-1.08-2.88-0.41-4.25c0.98-2.02,1.8-4.12,2.48-6.28
					c0.47-1.51,1.79-2.6,3.35-2.86l14.44-2.41c2.07-0.34,3.58-2.13,3.58-4.23v-10.13C194.89,111.22,193.37,109.43,191.3,109.09z
					 M129.84,146.54c-15.55,0-28.16-12.61-28.16-28.16s12.61-28.16,28.16-28.16c15.55,0,28.16,12.61,28.16,28.16
					S145.39,146.54,129.84,146.54z"/>
			</g>
			<g>
				<g>
					<path class="st8" d="M339.33,158l-6.73-1.12c-0.66-0.11-1.21-0.55-1.47-1.17l-1.13-2.73c-0.26-0.62-0.17-1.32,0.21-1.86
						l3.97-5.55c0.55-0.77,0.46-1.82-0.21-2.49l-3.23-3.23c-0.67-0.67-1.72-0.75-2.49-0.21l-5.55,3.97
						c-0.54,0.39-1.25,0.47-1.86,0.21l-2.73-1.13c-0.62-0.26-1.06-0.81-1.17-1.47l-1.12-6.73c-0.16-0.93-0.96-1.61-1.9-1.61h-4.56
						c-0.94,0-1.75,0.68-1.9,1.61l-1.12,6.73c-0.11,0.66-0.55,1.21-1.17,1.47l-2.73,1.13c-0.62,0.25-1.32,0.17-1.86-0.21l-5.55-3.97
						c-0.77-0.55-1.82-0.46-2.49,0.21l-3.23,3.23c-0.67,0.67-0.75,1.72-0.21,2.49l3.97,5.55c0.39,0.54,0.47,1.25,0.21,1.86
						l-1.13,2.73c-0.26,0.62-0.81,1.06-1.47,1.17l-6.73,1.12c-0.93,0.16-1.61,0.96-1.61,1.9v4.56c0,0.94,0.68,1.75,1.61,1.9
						l6.5,1.08c0.7,0.12,1.29,0.61,1.51,1.29c0.3,0.98,0.68,1.92,1.12,2.83c0.3,0.62,0.21,1.36-0.19,1.91l-3.79,5.31
						c-0.55,0.77-0.46,1.82,0.21,2.49l3.23,3.23c0.67,0.67,1.72,0.75,2.49,0.21l5.18-3.7c0.57-0.41,1.33-0.49,1.96-0.16
						c0.95,0.49,1.95,0.92,2.99,1.26c0.67,0.22,1.14,0.81,1.25,1.5l1.04,6.25c0.16,0.93,0.96,1.61,1.9,1.61h4.56
						c0.94,0,1.75-0.68,1.9-1.61l1.04-6.25c0.12-0.69,0.59-1.28,1.25-1.5c1.03-0.34,2.03-0.76,2.99-1.26
						c0.63-0.32,1.38-0.25,1.96,0.16c1.33,0.95,3.7,2.65,5.19,3.71c0.77,0.55,1.82,0.46,2.48-0.21l3.23-3.23
						c0.67-0.67,0.75-1.72,0.21-2.49l-3.79-5.31c-0.4-0.56-0.48-1.3-0.19-1.91c0.44-0.91,0.81-1.85,1.12-2.83
						c0.21-0.68,0.81-1.17,1.51-1.29l6.5-1.08c0.93-0.16,1.61-0.96,1.61-1.9v-4.56C340.94,158.96,340.26,158.15,339.33,158z
						 M311.65,174.86c-7,0-12.68-5.68-12.68-12.68c0-7,5.68-12.68,12.68-12.68s12.68,5.68,12.68,12.68
						C324.33,169.19,318.65,174.86,311.65,174.86z"/>
				</g>
			</g>
			<g>
				<g>
					
						<ellipse transform="matrix(0.9396 -0.3423 0.3423 0.9396 -12.712 81.2832)" class="st0" cx="223.91" cy="76.65" rx="42.82" ry="42.82"/>
					<circle class="st6" cx="223.91" cy="76.65" r="34.4"/>
				</g>
				<path class="st0" d="M222.6,83.75c-0.32-0.02-0.64-0.11-0.94-0.26c-0.9-0.46-1.44-1.41-1.36-2.42l1.76-23.24
					c0.07-0.96,0.91-1.67,1.86-1.6c0.96,0.07,1.67,0.91,1.6,1.86L223.93,79l13.34-11.46c0.73-0.62,1.82-0.54,2.45,0.19
					c0.62,0.73,0.54,1.82-0.19,2.45l-15.12,12.99C223.9,83.6,223.25,83.8,222.6,83.75z"/>
			</g>
			<g>
				<path class="st0" d="M300.61,181.18h-159.9V90.42c0-2.69,2.18-4.88,4.88-4.88h150.14c2.69,0,4.88,2.18,4.88,4.88V181.18z"/>
				<path class="st9" d="M293.56,173.89h-145.8c-0.46,0-0.83-0.37-0.83-0.83V93.02c0-0.46,0.37-0.83,0.83-0.83h145.8
					c0.46,0,0.83,0.37,0.83,0.83v80.04C294.38,173.52,294.02,173.89,293.56,173.89z"/>
				<path class="st8" d="M140.62,181.18H300.6l26.51,42.12c1.24,2.07-0.26,4.7-2.67,4.7H117.97c-3.33,0-5.34-3.69-3.52-6.49
					L140.62,181.18z"/>
				<path class="st10" d="M140.91,181.18h159.75l24.67,38.76c1.21,1.91-0.25,4.33-2.63,4.33H119.69c-3.28,0-5.25-3.4-3.46-5.97
					L140.91,181.18z"/>
				<circle class="st11" cx="220.66" cy="88.78" r="1.49"/>
				<path class="st0" d="M257.55,221.28h-73.79c-1.81,0-3.13-1.72-2.66-3.47l2-7.44c0.32-1.2,1.42-2.04,2.66-2.04h68.35
					c1.08,0,2.05,0.63,2.5,1.6l3.43,7.44C260.9,219.2,259.57,221.28,257.55,221.28z"/>
				<path class="st0" d="M153.95,182.93h134.57c1.07,0,2.05,0.61,2.51,1.58l8.79,18.35c0.89,1.85-0.46,3.99-2.51,3.99h-153.3
					c-2.11,0-3.45-2.25-2.45-4.11l9.94-18.35C151.99,183.49,152.93,182.93,153.95,182.93z"/>
				<line class="st12" x1="146.33" y1="186.94" x2="294.99" y2="186.94"/>
				<line class="st12" x1="143.49" y1="192.92" x2="297.83" y2="192.92"/>
				<line class="st12" x1="140.65" y1="200.39" x2="299.25" y2="200.39"/>
				<line class="st12" x1="211.12" y1="182.93" x2="211.12" y2="206.84"/>
				<line class="st12" x1="225.31" y1="182.93" x2="225.31" y2="206.84"/>
				<line class="st12" x1="184.16" y1="182.93" x2="178.49" y2="206.84"/>
				<line class="st12" x1="198.35" y1="182.93" x2="195.52" y2="206.84"/>
				<line class="st12" x1="158.62" y1="182.93" x2="148.69" y2="206.84"/>
				<line class="st12" x1="171.39" y1="182.93" x2="164.3" y2="206.84"/>
				<line class="st12" x1="253.69" y1="182.93" x2="259.37" y2="206.84"/>
				<line class="st12" x1="239.5" y1="182.93" x2="242.34" y2="206.84"/>
				<line class="st12" x1="279.23" y1="182.93" x2="289.16" y2="206.84"/>
				<line class="st12" x1="266.46" y1="182.93" x2="273.56" y2="206.84"/>
				<path class="st5" d="M189.2,129.78h-28.53c-1.09,0-1.97-0.88-1.97-1.97v-23.66c0-1.09,0.88-1.97,1.97-1.97h28.53
					c1.09,0,1.97,0.88,1.97,1.97v23.66C191.17,128.9,190.29,129.78,189.2,129.78z"/>
				<path class="st6" d="M283.1,167.12h-68.58c-0.34,0-0.62-0.28-0.62-0.62v-63.71c0-0.34,0.28-0.62,0.62-0.62h68.58
					c0.34,0,0.62,0.28,0.62,0.62v63.71C283.72,166.85,283.44,167.12,283.1,167.12z"/>
				<path class="st0" d="M284.2,135.12v11.82c0,1.29-1.04,2.33-2.33,2.33h-38.62c-1.29,0-2.33,1.04-2.33,2.33v1.84
					c0,1.29,1.04,2.33,2.33,2.33h43.28c1.29,0,2.33-1.04,2.33-2.33v-18.31c0-1.19-0.9-2.19-2.08-2.31l0,0
					C285.4,132.65,284.2,133.73,284.2,135.12z"/>
				<path class="st0" d="M234.06,152.91l9.18-9.18c0.35-0.35,0.96-0.1,0.96,0.4v17.66c0,0.49-0.58,0.74-0.94,0.41l-9.18-8.48
					C233.84,153.5,233.84,153.13,234.06,152.91z"/>
				<path class="st6" d="M208.9,167.12h-2.98c-0.07,0-0.13-0.06-0.13-0.13v-64.68c0-0.07,0.06-0.13,0.13-0.13h2.98
					c0.07,0,0.13,0.06,0.13,0.13v64.68C209.03,167.06,208.97,167.12,208.9,167.12z"/>
				<path class="st6" d="M200.65,139.52h-41.69c-0.15,0-0.26-0.12-0.26-0.26v-2.72c0-0.15,0.12-0.26,0.26-0.26h41.69
					c0.15,0,0.26,0.12,0.26,0.26v2.72C200.91,139.4,200.79,139.52,200.65,139.52z"/>
				<path class="st6" d="M200.65,147.64h-41.69c-0.15,0-0.26-0.12-0.26-0.26v-2.72c0-0.15,0.12-0.26,0.26-0.26h41.69
					c0.15,0,0.26,0.12,0.26,0.26v2.72C200.91,147.52,200.79,147.64,200.65,147.64z"/>
				<path class="st6" d="M200.65,155.76h-41.69c-0.15,0-0.26-0.12-0.26-0.26v-2.72c0-0.15,0.12-0.26,0.26-0.26h41.69
					c0.15,0,0.26,0.12,0.26,0.26v2.72C200.91,155.64,200.79,155.76,200.65,155.76z"/>
				<path class="st7" d="M156.31,116.71v-9.13c0-0.99,0.8-1.8,1.8-1.8h29.82c0.99,0,1.8-0.8,1.8-1.8v-1.42c0-0.99-0.8-1.8-1.8-1.8
					h-33.42c-0.99,0-1.8,0.8-1.8,1.8v14.14c0,0.92,0.69,1.69,1.6,1.79l0,0C155.38,118.61,156.31,117.78,156.31,116.71z"/>
				<path class="st7" d="M195.02,102.97l-7.09,7.09c-0.27,0.27-0.74,0.08-0.74-0.31V96.12c0-0.38,0.45-0.58,0.73-0.32l7.09,6.54
					C195.19,102.51,195.2,102.79,195.02,102.97z"/>
			</g>
			<g>
				<path class="st13" d="M383.6,141.14h-108.3c-1.48,0-2.68-1.2-2.68-2.68v-28.74c0-1.48,1.2-2.68,2.68-2.68h108.3
					c1.48,0,2.68,1.2,2.68,2.68v28.74C386.27,139.95,385.07,141.14,383.6,141.14z"/>
				<path class="st7" d="M378.72,136.27h-108.3c-1.48,0-2.68-1.2-2.68-2.68v-28.74c0-1.48,1.2-2.68,2.68-2.68h108.3
					c1.48,0,2.68,1.2,2.68,2.68v28.74C381.4,135.08,380.2,136.27,378.72,136.27z"/>
				<path class="st11" d="M372.71,116.79h-67.05c-0.32,0-0.57-0.26-0.57-0.57v-2.1c0-0.32,0.26-0.57,0.57-0.57h67.05
					c0.32,0,0.57,0.26,0.57,0.57v2.1C373.28,116.53,373.03,116.79,372.71,116.79z"/>
				<path class="st11" d="M372.71,126.53h-67.05c-0.32,0-0.57-0.26-0.57-0.57v-2.1c0-0.32,0.26-0.57,0.57-0.57h67.05
					c0.32,0,0.57,0.26,0.57,0.57v2.1C373.28,126.27,373.03,126.53,372.71,126.53z"/>
				<circle class="st11" cx="287.23" cy="118.41" r="9.74"/>
			</g>
			<g>
				<path class="st7" d="M160.03,170.37h-44.41c-1.2,0-2.18-0.98-2.18-2.18v-42.73c0-1.2,0.98-2.18,2.18-2.18h44.41
					c1.2,0,2.18,0.98,2.18,2.18v42.73C162.21,169.39,161.23,170.37,160.03,170.37z"/>
				<path class="st13" d="M160.03,170.37h-44.41c-1.2,0-2.18-0.98-2.18-2.18v-42.73c0-1.2,0.98-2.18,2.18-2.18h44.41
					c1.2,0,2.18,0.98,2.18,2.18v42.73C162.21,169.39,161.23,170.37,160.03,170.37z"/>
				<path class="st13" d="M163.28,173.62h-44.41c-1.2,0-2.18-0.98-2.18-2.18v-42.73c0-1.2,0.98-2.18,2.18-2.18h44.41
					c1.2,0,2.18,0.98,2.18,2.18v42.73C165.46,172.64,164.48,173.62,163.28,173.62z"/>
				<path class="st9" d="M132.07,143.89h-12.9c-0.47,0-0.86-0.38-0.86-0.86v-12.4c0-0.47,0.38-0.86,0.86-0.86h12.9
					c0.47,0,0.86,0.38,0.86,0.86v12.4C132.93,143.5,132.54,143.89,132.07,143.89z"/>
				<line class="st14" x1="136.64" y1="134.65" x2="157.74" y2="134.65"/>
				<line class="st14" x1="136.64" y1="140.33" x2="157.74" y2="140.33"/>
				<path class="st15" d="M157.86,163.06h-38.38c-0.16,0-0.29-0.13-0.29-0.29v-12.4c0-0.16,0.13-0.29,0.29-0.29h38.38
					c0.16,0,0.29,0.13,0.29,0.29v12.4C158.15,162.93,158.02,163.06,157.86,163.06z"/>
			</g>
		</g>
	</g>
</g>
<g id="DESIGNED_BY_FREEPIK">
</g>
</svg>
