<?xml version="1.0" encoding="utf-8"?>
<!-- Generator: Adobe Illustrator 22.0.0, SVG Export Plug-In . SVG Version: 6.00 Build 0)  -->
<svg version="1.1" id="Layer_1" xmlns="http://www.w3.org/2000/svg" xmlns:xlink="http://www.w3.org/1999/xlink" x="0px" y="0px"
	 viewBox="0 0 307 50" style="enable-background:new 0 0 307 50;" xml:space="preserve">
<style type="text/css">
	.st0{fill:#FFFFFF;}
	.st1{fill:#134A8A;}
	.st2{fill:#1D9647;stroke:#000000;stroke-width:0.5;stroke-miterlimit:10;}
	.st3{fill:#EC1E24;}
	.st4{fill:none;stroke:#231F20;stroke-width:0.75;stroke-miterlimit:10;}
	.st5{fill:#0DA74B;stroke:#231F20;stroke-width:0.1;stroke-linecap:round;stroke-linejoin:round;stroke-miterlimit:10;}
	.st6{fill:#FFFFFF;stroke:#231F20;stroke-width:0.1;stroke-linecap:round;stroke-linejoin:round;stroke-miterlimit:10;}
	.st7{fill:#F7E508;stroke:#231F20;stroke-width:0.1;stroke-miterlimit:10;}
	.st8{fill:#231F20;}
	.st9{fill:none;stroke:#231F20;stroke-width:0.25;stroke-miterlimit:10;}
	.st10{font-family:'Arial-BoldMT';}
	.st11{font-size:7.1472px;}
</style>
<g>
	<path class="st0" d="M72,5.2l-5.8,11.3v5.6h-4.1v-5.6L56.2,5.2h4.7l3.3,7.1l3.2-7.1H72z"/>
	<path class="st0" d="M84.2,19.2h-6.3l-1,3h-4.3l6.1-16.9h4.8l6.1,16.9h-4.4L84.2,19.2z M83.2,16l-2.1-6.2L79,16H83.2z"/>
	<path class="st0" d="M105.9,5.2l-5.8,11.3v5.6H96v-5.6L90.1,5.2h4.7l3.3,7.1l3.2-7.1H105.9z"/>
	<path class="st0" d="M118.1,19.2h-6.3l-1,3h-4.3l6.1-16.9h4.8l6.1,16.9h-4.4L118.1,19.2z M117,16l-2.1-6.2l-2.1,6.2H117z"/>
	<path class="st0" d="M128.1,21.7c-1-0.4-1.8-1-2.3-1.8c-0.6-0.8-0.9-1.7-0.9-2.8h4.4c0.1,0.6,0.3,1.1,0.6,1.4
		c0.4,0.3,0.9,0.5,1.4,0.5c0.6,0,1.1-0.1,1.4-0.4c0.4-0.3,0.5-0.7,0.5-1.2c0-0.4-0.1-0.8-0.4-1c-0.3-0.3-0.6-0.5-1-0.7
		c-0.4-0.2-1-0.4-1.7-0.6c-1.1-0.3-2-0.7-2.7-1s-1.3-0.8-1.8-1.5c-0.5-0.7-0.7-1.5-0.7-2.6c0-1.6,0.6-2.8,1.7-3.7
		c1.1-0.9,2.6-1.3,4.5-1.3c1.9,0,3.4,0.4,4.5,1.3c1.1,0.9,1.7,2.1,1.8,3.7h-4.5c0-0.5-0.2-1-0.6-1.3c-0.4-0.3-0.8-0.5-1.4-0.5
		c-0.5,0-0.9,0.1-1.2,0.4c-0.3,0.3-0.5,0.6-0.5,1.1c0,0.5,0.3,1,0.8,1.3c0.5,0.3,1.3,0.6,2.4,1c1.1,0.4,2,0.7,2.7,1.1
		c0.7,0.3,1.3,0.8,1.8,1.5c0.5,0.6,0.7,1.5,0.7,2.5c0,1-0.2,1.8-0.7,2.6c-0.5,0.8-1.2,1.4-2.1,1.9s-2,0.7-3.3,0.7
		C130.2,22.3,129.1,22.1,128.1,21.7z"/>
	<path class="st0" d="M150.6,19.2h-6.3l-1,3H139l6.1-16.9h4.8l6.1,16.9h-4.4L150.6,19.2z M149.6,16l-2.1-6.2l-2.1,6.2H149.6z"/>
	<path class="st0" d="M173,22.1h-4.1L162,11.7v10.4h-4.1V5.2h4.1l6.9,10.5V5.2h4.1V22.1z"/>
	<path class="st0" d="M190.9,22.1l-5.7-7.5v7.5h-4.1V5.2h4.1v7.4l5.6-7.4h4.8l-6.5,8.3l6.8,8.6H190.9z"/>
	<path class="st0" d="M202,8.5V12h5.5v3.2H202v3.7h6.2v3.3h-10.3V5.2h10.3v3.3H202z"/>
	<path class="st0" d="M215,19h5.4v3.2h-9.5V5.2h4.1V19z"/>
	<path class="st0" d="M226.4,5.2v10.1c0,1,0.2,1.8,0.7,2.3c0.5,0.5,1.2,0.8,2.2,0.8c1,0,1.7-0.3,2.2-0.8c0.5-0.5,0.8-1.3,0.8-2.3
		V5.2h4.1v10.1c0,1.5-0.3,2.8-1,3.8c-0.6,1-1.5,1.8-2.6,2.4c-1.1,0.5-2.3,0.8-3.6,0.8c-1.3,0-2.5-0.3-3.6-0.8
		c-1.1-0.5-1.9-1.3-2.5-2.4c-0.6-1.1-0.9-2.3-0.9-3.8V5.2H226.4z"/>
	<path class="st0" d="M249.8,19.2h-6.3l-1,3h-4.3l6.1-16.9h4.8l6.1,16.9h-4.4L249.8,19.2z M248.8,16l-2.1-6.2l-2.1,6.2H248.8z"/>
	<path class="st0" d="M265.7,22.1l-3.5-6.4h-1v6.4H257V5.2h6.9c1.3,0,2.5,0.2,3.4,0.7c0.9,0.5,1.6,1.1,2.1,1.9
		c0.5,0.8,0.7,1.7,0.7,2.7c0,1.1-0.3,2.1-1,3c-0.6,0.9-1.6,1.5-2.8,1.9l3.9,6.7H265.7z M261.2,12.8h2.6c0.8,0,1.3-0.2,1.7-0.6
		c0.4-0.4,0.6-0.9,0.6-1.6c0-0.6-0.2-1.1-0.6-1.5c-0.4-0.4-0.9-0.6-1.7-0.6h-2.6V12.8z"/>
	<path class="st0" d="M283.9,10.6c-0.3-0.6-0.7-1-1.3-1.3c-0.6-0.3-1.2-0.4-2-0.4c-1.3,0-2.4,0.4-3.2,1.3c-0.8,0.9-1.2,2-1.2,3.5
		c0,1.6,0.4,2.8,1.3,3.6c0.8,0.9,2,1.3,3.5,1.3c1,0,1.9-0.3,2.6-0.8c0.7-0.5,1.2-1.3,1.5-2.2h-5.2v-3h9v3.8c-0.3,1-0.8,2-1.6,2.9
		c-0.7,0.9-1.7,1.6-2.8,2.1c-1.1,0.5-2.4,0.8-3.8,0.8c-1.7,0-3.2-0.4-4.5-1.1c-1.3-0.7-2.3-1.7-3.1-3c-0.7-1.3-1.1-2.8-1.1-4.5
		s0.4-3.2,1.1-4.5c0.7-1.3,1.7-2.3,3-3.1c1.3-0.7,2.8-1.1,4.5-1.1c2,0,3.7,0.5,5.1,1.5c1.4,1,2.3,2.3,2.8,4.1H283.9z"/>
	<path class="st0" d="M301.6,19.2h-6.3l-1,3H290l6.1-16.9h4.8l6.1,16.9h-4.4L301.6,19.2z M300.5,16l-2.1-6.2l-2.1,6.2H300.5z"/>
	<path class="st0" d="M70.1,37.8c0.6,0.8,0.9,1.6,0.9,2.6c0,1.4-0.5,2.5-1.5,3.4c-1,0.8-2.4,1.2-4.1,1.2h-7.9V28.1h7.6
		c1.7,0,3.1,0.4,4,1.2c1,0.8,1.5,1.9,1.5,3.2c0,1-0.3,1.8-0.8,2.5c-0.5,0.7-1.2,1.1-2.1,1.4C68.8,36.5,69.5,37,70.1,37.8z
		 M61.7,34.9h2.7c0.7,0,1.2-0.1,1.6-0.4c0.4-0.3,0.5-0.7,0.5-1.3s-0.2-1-0.5-1.3c-0.4-0.3-0.9-0.5-1.6-0.5h-2.7V34.9z M66.3,41.2
		c0.4-0.3,0.6-0.8,0.6-1.4c0-0.6-0.2-1.1-0.6-1.4s-0.9-0.5-1.6-0.5h-3v3.7h3C65.4,41.7,65.9,41.5,66.3,41.2z"/>
	<path class="st0" d="M83.9,42h-6.3l-1,3h-4.3l6.1-16.9h4.8L89.3,45h-4.4L83.9,42z M82.9,38.8l-2.1-6.2l-2.1,6.2H82.9z"/>
	<path class="st0" d="M103.3,28.1v3.3h-4.5V45h-4.1V31.4h-4.5v-3.3H103.3z"/>
	<path class="st0" d="M115.9,42h-6.3l-1,3h-4.3l6.1-16.9h4.8l6.1,16.9h-4.4L115.9,42z M114.8,38.8l-2.1-6.2l-2.1,6.2H114.8z"/>
	<path class="st0" d="M142.2,28.1V45h-4.1V34.9L134.3,45H131l-3.8-10.2V45h-4.1V28.1h4.9l4.7,11.7l4.7-11.7H142.2z"/>
</g>
<g>
	<polygon class="st1" points="25.9,0 0,17.4 10.3,47.6 41.7,47.6 51.3,17.4 	"/>
	<path class="st2" d="M16.1,25.2c0,0,0.5-1.6-1.1-3c-0.9-0.6-0.9-0.8-0.9-0.8s0-0.5-0.1-0.8c-0.1-0.4-0.2-1.3-0.3-1.6
		c0-0.3,0.1-2.1,0.1-2.1l0.3-0.9h1c0,0,0.4,0.1,0.6,0.3c0.2,0.3,1.5,1.2,1.8,1.3c0.3,0.1,1.6,0.3,2,0c0.5-0.3,1-0.8,1.8-0.2
		c0.3,0.2,0.5-0.5,0.5-0.5s-0.1-0.7,0.1-1c0.2-0.3,0.9-0.6,0.9-0.6s0.2-0.9,0-1.2c-0.2-0.4-0.8-1.4-0.8-1.4s-0.3-0.7,0-1
		c0.3-0.3,0.6-0.9,1.3-0.7c0.6,0.2,1.2,0.2,1.6,1c0.4,0.9,1.3,0.5,1.3,0.5l0.4,0.5c0,0,1-0.1,1.3,0.2c0.3,0.2,0.9,0.6,0.8,1.5
		c-0.1,0.9-0.3,1.1-0.3,1.1v0.6c0,0,0.7,0.5,1,1c0.3,0.5,0.6,0.8,0.9,0.9s0.4-0.1,0.6-0.5s0.5-1.2,0.8-1.4c0.2-0.2,0.3-0.3,0.3-0.7
		c-0.1-0.4-0.5-1-0.6-1.1c-0.1-0.1-0.3-0.6-0.2-0.9c0.1-0.3,0.4-0.8,0.7-0.8s1,0.3,1.4,0.9c0.3,0.6,0.8,0.5,0.8,0.5s0.7,0.4,0.8,1
		s0,2.2,0,2.2s0.3,0.8,0.9,1.1c0.6,0.3,1.7,1.7,1.7,1.7s1.3,1.8,1.1,2.5c-0.2,0.8-0.8,1.6-1.1,1.9c-0.3,0.3-0.6,0.8-0.7,1
		c-0.1,0.2-0.7,0.7-0.9,0.9c-0.2,0.2-0.7,0.6-0.7,0.8c0,0.2-0.1,1.3-0.1,1.6c0,0.2,0.2,1.3,0.5,1.7c0.3,0.4,1.3,1.4,1.4,1.6
		c0.1,0.3,0.1,1.2-0.1,1.4c-0.1,0.2-0.7,1.1-0.7,1.1s-1-0.1-1.4,0.1c-0.4,0.2-1.3,0.9-2,0.7c-0.7-0.3-1-0.7-1.3-1
		c-0.3-0.3-1.2-1.1-1.7-0.1c-0.2,0.5,1.4,2.4,1.4,2.4s0.9,0.7,1,1.5c0.1,0.9-0.4,0.6-0.4,0.6l-6.5-0.4c0,0-0.1-0.6-0.3-1.1
		s-0.9-1.3-1.3-1.5c-0.3-0.2-0.4-1.6-0.4-1.6s-0.4-1.2-0.7-0.9c-0.4,0.3-0.9,0.4-0.9,1.3c0,0.8,0.1,1.8-0.1,2.5
		c-0.2,0.8-0.3,1-0.7,1c-0.4,0.1-1.1,0-1.6-0.3s-1.3-1.4-1.3-1.4s-0.1-0.7,0.4-0.3c0.3,0.2,0.8,0.1,0.9-0.1c0.1-0.2,0.6-1.5,0.6-1.5
		s0.1-0.6-0.2-0.7s-0.5,0.1-0.7,0.1c-0.3,0-1.1-0.2-1.2-0.6c-0.2-0.4,0.1-0.8,0.2-0.8c0.1-0.1,1-0.8,0.8-1.3c-0.1-0.6-0.9-1-1.4-0.8
		s-1.3,0.8-1.6,0.9c-0.3,0.1-1,0.8-1.6,0.7c-0.6-0.1-1-0.8-1-0.8s0.2-0.7,0.1-1.2S12.6,29,12.6,29l-0.8-1.2c0,0-0.2-0.5-0.2-0.9
		c0-0.4,0-1,0.3-1.3c0.3-0.3,0.9-0.7,1.3-0.7c0.3,0.1,1.3,0.1,1.6,0.2S16.1,25.2,16.1,25.2z"/>
	<path class="st3" d="M22.3,7.4h7.4V6.7c0,0-0.1-0.5-0.6-0.6c-0.3-0.1-0.3-0.7-0.3-0.7s-0.1-0.5-0.4-1c-0.1,0.4,0,0.7-0.1,1
		c-0.1,0.2,0,0.6,0,0.8c0,0.1-0.2,0.3-0.3,0c-0.2-0.4-0.1-0.8-0.3-1s-0.1-0.9-0.1-0.9s-0.2-0.3-0.2-0.6c-0.2,0.2-0.2,0.5-0.3,0.6
		c-0.1,0.1,0,1,0,1.2s-0.5,0.5-0.6,0s-0.1-3.1-0.1-3.1s-0.2-0.3-0.2-0.5c0-0.2-0.2-0.2-0.2,0s-0.1,0.4-0.1,0.5c0,0.1,0,2.5,0,2.5
		s-0.1,0.7-0.7,0.3c-0.2-0.1-0.2-0.8-0.2-0.8s0-0.2,0.1-0.3c0.1-0.1,0.1-0.6-0.1-0.7c-0.1-0.1-0.3-0.5-0.3-0.6
		c-0.1,0.1-0.3,0.6-0.3,1.1c0.1,0.5,0.3,1.1,0.3,1.3c0,0.2,0.1,0.5,0,0.6c-0.1,0.1-0.4,0.2-0.5-0.1s0-1.1,0-1.3s-0.1-0.5-0.1-0.6
		s-0.1-0.1-0.2,0.1s-0.2,0.4-0.1,0.7c0,0.3,0.2,0.7,0.1,1c0,0.3-0.1,0.7-0.3,0.9c-0.2,0.2-0.4,0.3-0.5,0c-0.1-0.3-0.2-0.8-0.1-1
		c-0.1,0-0.1,0.1-0.2,0.2c-0.1,0.1-0.2,0.7-0.3,0.8C22.3,6.6,22.3,6.7,22.3,7.4z"/>
	<g>
		<path class="st4" d="M13.7,38.8c-7.9-9.2-10.3-18.9,2.7-28.2"/>
		<path class="st5" d="M19.5,10.7c-0.6-0.3-0.7-0.7-0.7-1c-0.1-0.3,0.1-0.9,0.1-0.9S18.2,9,18,8.9c-0.4-0.3-0.3-1-0.3-1.1l-0.1,0.1
			c-3.2,1.8-1.3,5,2,3C19.6,10.8,19.5,10.8,19.5,10.7z"/>
		<path class="st6" d="M17.7,7.8c0,0-0.1,0.8,0.3,1.1c0.1,0.1,0.9-0.1,0.9-0.1s-0.2,0.6-0.1,0.9c0.1,0.3,0.1,0.7,0.7,1
			c0.4,0.2,0.6-0.3,0.6-0.3s0.1-0.2-0.2-0.4c-0.3-0.2-0.3-0.6-0.2-0.9s0-0.8-0.4-0.9c-0.4-0.1-0.6,0-0.7-0.3s-0.2-0.6-0.5-0.4
			C17.8,7.6,17.7,7.8,17.7,7.8z"/>
		<path class="st5" d="M15.7,13.5c-0.6-0.3-0.7-0.7-0.7-1s0.1-0.9,0.1-0.9s-0.7,0.2-0.9,0.1c-0.4-0.3-0.3-1-0.3-1.1l-0.1,0.1
			c-3.2,1.8-1.3,5,2,3C15.8,13.6,15.8,13.6,15.7,13.5z"/>
		<path class="st6" d="M14,10.6c0,0-0.1,0.8,0.3,1.1c0.1,0.1,0.9-0.1,0.9-0.1S15,12.2,15,12.5s0.1,0.7,0.7,1
			c0.4,0.2,0.6-0.3,0.6-0.3s0.1-0.2-0.2-0.4c-0.3-0.2-0.3-0.6-0.2-0.9c0.1-0.3,0-0.8-0.4-0.9c-0.4-0.1-0.6,0-0.7-0.3
			c-0.2-0.3-0.2-0.6-0.5-0.4C14,10.4,14,10.6,14,10.6z"/>
		<path class="st5" d="M12.3,16.4c-0.7-0.1-0.8-0.5-1-0.8c-0.1-0.3-0.1-0.9-0.1-0.9s-0.7,0.4-0.8,0.3c-0.4-0.1-0.6-0.9-0.6-1
			l-0.1,0.1c-2.6,2.6,0.1,5.2,2.7,2.3C12.4,16.4,12.3,16.4,12.3,16.4z"/>
		<path class="st6" d="M9.8,14.1c0,0,0.1,0.8,0.6,0.9c0.1,0,0.8-0.3,0.8-0.3s0,0.7,0.1,0.9c0.1,0.3,0.3,0.6,1,0.8
			c0.4,0.1,0.5-0.5,0.5-0.5s0-0.2-0.3-0.4c-0.3-0.1-0.5-0.5-0.4-0.8c0-0.4-0.2-0.8-0.6-0.7c-0.4,0-0.5,0.1-0.8-0.1
			c-0.2-0.2-0.3-0.5-0.6-0.3S9.8,14.1,9.8,14.1z"/>
		<path class="st5" d="M10.4,20.4c-0.8,0.2-1.1-0.2-1.3-0.4s-0.5-0.9-0.5-0.9S8,19.8,7.8,19.8c-0.5,0-1-0.7-1-0.8l-0.1,0.1
			c-1.6,3.8,2.3,5.4,3.8,1.3C10.5,20.4,10.5,20.4,10.4,20.4z"/>
		<path class="st6" d="M6.8,19c0,0,0.4,0.8,1,0.7c0.2,0,0.7-0.7,0.7-0.7s0.3,0.7,0.5,0.9s0.6,0.5,1.3,0.4c0.5-0.1,0.3-0.7,0.3-0.7
			s0-0.2-0.4-0.3s-0.7-0.3-0.8-0.7S9,18,8.5,18.3c-0.4,0.2-0.5,0.3-0.9,0.2s-0.5-0.4-0.7,0S6.8,19,6.8,19z"/>
		<path class="st5" d="M9.1,24.9c-0.7,0.4-1.1,0.2-1.4,0.1c-0.3-0.1-0.8-0.7-0.8-0.7s-0.2,0.8-0.4,0.9C6,25.5,5.3,25,5.2,24.9l0,0.1
			c-0.1,4.1,4.1,4.2,4-0.2C9.2,24.9,9.2,24.9,9.1,24.9z"/>
		<path class="st6" d="M5.3,25c0,0,0.7,0.6,1.2,0.3c0.1-0.1,0.4-0.9,0.4-0.9s0.5,0.6,0.8,0.7c0.3,0.1,0.7,0.3,1.4-0.1
			c0.4-0.3,0-0.8,0-0.8S9,23.9,8.6,24.1c-0.4,0.1-0.7,0-1-0.3s-0.7-0.5-1-0.1c-0.3,0.4-0.4,0.5-0.8,0.5S5.2,24,5.1,24.4
			S5.3,25,5.3,25z"/>
		<path class="st5" d="M9.9,29.7c-0.5,0.6-0.9,0.6-1.3,0.6c-0.3,0-1-0.4-1-0.4s0,0.9-0.1,1c-0.4,0.4-1.2,0.1-1.3,0l0,0.1
			c1.2,4,5.2,2.6,3.7-1.4C10,29.6,10,29.7,9.9,29.7z"/>
		<path class="st6" d="M6.3,30.9c0,0,0.8,0.3,1.3-0.1c0.1-0.1,0.1-1,0.1-1s0.7,0.4,1,0.4c0.3,0,0.8,0.1,1.3-0.6
			c0.3-0.4-0.2-0.8-0.2-0.8S9.5,28.8,9.2,29s-0.7,0.2-1.1,0c-0.3-0.2-0.8-0.2-1,0.2C7,29.7,7,29.9,6.6,30S5.9,30,6,30.4
			C6.1,30.8,6.3,30.9,6.3,30.9z"/>
		<path class="st5" d="M12.5,34.2c-0.3,0.7-0.8,0.8-1.1,0.8c-0.3,0.1-1.1-0.2-1.1-0.2s0.2,0.8,0.1,1c-0.3,0.4-1.2,0.3-1.3,0.3
			l0.1,0.1c2.1,3.6,5.7,1.4,3.3-2.2C12.6,34.1,12.6,34.1,12.5,34.2z"/>
		<path class="st6" d="M9.3,36.2c0,0,0.9,0.1,1.2-0.4c0.1-0.1-0.1-1-0.1-1s0.7,0.2,1.1,0.2c0.3-0.1,0.8-0.1,1.1-0.8
			c0.2-0.4-0.4-0.7-0.4-0.7s-0.2-0.1-0.5,0.2c-0.3,0.3-0.6,0.4-1,0.2c-0.4-0.1-0.9,0-1,0.4c-0.1,0.5,0,0.6-0.4,0.8
			c-0.3,0.2-0.6,0.2-0.5,0.6C9,36.1,9.3,36.2,9.3,36.2z"/>
	</g>
	<g>
		<path class="st4" d="M37.2,38.8c7.9-9.2,10.3-18.9-2.7-28.2"/>
		<path class="st7" d="M38.5,32.9c1,0.8,1.3,1.9,0.6,3.5C37.9,35.6,37.6,34.3,38.5,32.9z"/>
		<path class="st7" d="M39.7,31.1c1,0.8,1.3,1.9,0.6,3.5C39.1,33.8,38.8,32.5,39.7,31.1z"/>
		<path class="st7" d="M40.7,29.4c1,0.8,1.3,1.9,0.6,3.5C40.1,32,39.8,30.7,40.7,29.4z"/>
		<path class="st7" d="M41.1,27.5c1.2,0.6,1.7,1.6,1.4,3.2C41.2,30.2,40.5,29,41.1,27.5z"/>
		<path class="st7" d="M41.3,25.5c1.3,0.4,1.9,1.3,2,2.9C41.8,28.2,40.9,27.2,41.3,25.5z"/>
		<path class="st7" d="M41.2,23.8c1.3,0.1,2.1,0.9,2.5,2.5C42.2,26.4,41.2,25.5,41.2,23.8z"/>
		<path class="st7" d="M40.7,22c1.3-0.1,2.2,0.6,2.8,2.2C42.1,24.4,41,23.7,40.7,22z"/>
		<path class="st7" d="M40,20.4c1.3-0.4,2.3,0.1,3.2,1.5C41.9,22.4,40.6,22,40,20.4z"/>
		<path class="st7" d="M39.3,18.5c1.3-0.4,2.3,0.1,3.2,1.5C41.1,20.6,39.9,20.1,39.3,18.5z"/>
		<path class="st7" d="M38,17.2c1.2-0.6,2.3-0.5,3.5,0.7C40.3,18.8,38.9,18.6,38,17.2z"/>
		<path class="st7" d="M36.9,15.6c1.2-0.6,2.3-0.5,3.5,0.7C39.1,17.1,37.8,17,36.9,15.6z"/>
		<path class="st7" d="M35.2,13.9c1.2-0.6,2.3-0.5,3.5,0.7C37.5,15.4,36.1,15.3,35.2,13.9z"/>
		<path class="st7" d="M33.9,12c1.2-0.5,2.3-0.1,3.3,1.2C35.9,13.8,34.6,13.5,33.9,12z"/>
		<path class="st7" d="M34.9,10.8c-0.6-1.2-1.6-1.7-3.2-1.4C32.1,10.7,33.3,11.4,34.9,10.8z"/>
		<path class="st7" d="M36,9c-0.6,1.2-0.4,2.3,0.8,3.4C37.7,11.2,37.5,9.9,36,9z"/>
		<path class="st7" d="M37.9,10.1c-0.8,1.1-0.7,2.2,0.3,3.5C39.2,12.5,39.2,11.2,37.9,10.1z"/>
		<path class="st7" d="M39.8,11.3c-1,0.9-1.1,2.1-0.3,3.5C40.6,13.9,40.9,12.5,39.8,11.3z"/>
		<path class="st7" d="M41.1,12.7c-1,0.9-1.1,2.1-0.4,3.5C41.9,15.4,42.1,14,41.1,12.7z"/>
		<path class="st7" d="M42.6,14.2c-1.1,0.8-1.5,1.8-1,3.4C42.9,17,43.4,15.7,42.6,14.2z"/>
		<path class="st7" d="M43.7,15.9c-1.2,0.6-1.7,1.6-1.4,3.2C43.7,18.6,44.4,17.4,43.7,15.9z"/>
		<path class="st7" d="M44.6,17.5c-1.2,0.6-1.7,1.6-1.4,3.2C44.7,20.3,45.3,19.1,44.6,17.5z"/>
		<path class="st7" d="M45.4,19.6c-1.2,0.6-1.8,1.6-1.5,3.2C45.3,22.4,46,21.2,45.4,19.6z"/>
		<path class="st7" d="M46.3,22.2c-1.3,0.2-2.1,1-2.3,2.6C45.5,24.8,46.5,23.9,46.3,22.2z"/>
		<path class="st7" d="M46.4,24.5c-1.3,0.1-2.2,0.8-2.5,2.4C45.4,27.1,46.4,26.2,46.4,24.5z"/>
		<path class="st7" d="M46.4,27c-1.3-0.2-2.3,0.4-3,1.9C44.9,29.3,46.1,28.7,46.4,27z"/>
		<path class="st7" d="M45.6,29.2c-1.3-0.2-2.3,0.4-3,1.9C44,31.5,45.2,30.9,45.6,29.2z"/>
		<path class="st7" d="M44.8,31.9c-1.3-0.4-2.3,0-3.3,1.4C42.9,33.9,44.2,33.5,44.8,31.9z"/>
		<path class="st7" d="M43.7,34.1c-1.2-0.6-2.3-0.3-3.4,1C41.6,35.8,42.9,35.6,43.7,34.1z"/>
		<path class="st7" d="M42.7,36.1c-1.2-0.7-2.3-0.6-3.5,0.6C40.4,37.6,41.7,37.5,42.7,36.1z"/>
	</g>
	<g>
		<g>
			<path class="st0" d="M6.7,50.3C6.7,50.3,6.7,50.2,6.7,50.3c-0.2-0.1-0.3-0.1-0.3-0.3c0-1,0.3-2,1-3l-2.3,0
				c-0.1,0-0.2-0.1-0.2-0.2c0-0.1,0-0.2,0.1-0.3c1.6-1.6,3.3-2.9,5.1-3.8c0,0,0.1,0,0.1,0c0.1,0,0.2,0,0.2,0.1l1.8,3
				c0,0.1,0,0.1,0,0.2c0,0.1-0.1,0.1-0.2,0.2c-1.9,0.6-3.5,1.9-5.2,4C6.9,50.2,6.8,50.3,6.7,50.3z"/>
			<path class="st8" d="M10.3,42.9l1.8,3C10,46.6,8.3,48.1,6.7,50c0-1.2,0.5-2.3,1.2-3.3l-2.7,0C6.8,45.2,8.4,43.9,10.3,42.9
				 M10.3,42.4c-0.1,0-0.2,0-0.2,0.1c-1.8,0.9-3.5,2.2-5.2,3.8c-0.1,0.1-0.2,0.4-0.1,0.5c0.1,0.2,0.3,0.3,0.5,0.3l1.8,0
				C6.5,48.1,6.2,49,6.2,50c0,0.2,0.1,0.4,0.3,0.5c0.1,0,0.1,0,0.2,0c0.1,0,0.3-0.1,0.4-0.2c1.7-2.1,3.3-3.3,5.1-3.9
				c0.1,0,0.3-0.2,0.3-0.3c0.1-0.1,0-0.3,0-0.4l-1.8-3C10.6,42.5,10.4,42.4,10.3,42.4L10.3,42.4z"/>
		</g>
		<g>
			<path class="st0" d="M46,50.2c-0.1,0-0.1,0-0.2-0.1c-1.7-2.1-3.4-3.4-5.2-4c-0.1,0-0.1-0.1-0.2-0.2c0-0.1,0-0.2,0-0.2l1.8-3
				c0-0.1,0.1-0.1,0.2-0.1c0,0,0.1,0,0.1,0c1.8,0.9,3.4,2.2,5.1,3.8c0.1,0.1,0.1,0.2,0.1,0.3c0,0.1-0.1,0.2-0.2,0.2l-2.3,0
				c0.7,1,1,2,1,3C46.3,50.1,46.2,50.2,46,50.2C46.1,50.2,46,50.2,46,50.2z"/>
			<path class="st8" d="M42.5,42.9c1.9,1,3.5,2.3,5,3.8l-2.7,0c0.7,1,1.2,2.1,1.2,3.3c-1.5-1.9-3.2-3.4-5.4-4.1L42.5,42.9
				 M42.5,42.4c-0.2,0-0.3,0.1-0.4,0.2l-1.8,3c-0.1,0.1-0.1,0.3,0,0.4c0.1,0.1,0.2,0.3,0.3,0.3c1.8,0.6,3.5,1.8,5.1,3.9
				c0.1,0.1,0.2,0.2,0.4,0.2c0.1,0,0.1,0,0.2,0c0.2-0.1,0.3-0.3,0.3-0.5c0-0.9-0.3-1.9-0.8-2.8l1.8,0c0.2,0,0.4-0.1,0.5-0.3
				c0.1-0.2,0-0.4-0.1-0.5c-1.7-1.6-3.4-2.9-5.2-3.8C42.7,42.5,42.6,42.4,42.5,42.4L42.5,42.4z"/>
		</g>
		<g>
			<path class="st0" d="M40.5,45.6c0,0-0.1,0-0.1,0c-5-2.2-9.9-3.3-14.6-3.3c-4.6,0-9.2,1.1-13.6,3.2c0,0-0.1,0-0.1,0
				c-0.1,0-0.2,0-0.2-0.1l-1.8-2.9c0-0.1,0-0.1,0-0.2s0.1-0.1,0.1-0.2c4.9-2.6,10.1-3.9,15.5-3.9c5.3,0,10.9,1.3,16.7,3.9
				c0.1,0,0.1,0.1,0.1,0.2c0,0.1,0,0.1,0,0.2l-1.8,3C40.7,45.5,40.6,45.6,40.5,45.6z"/>
			<path class="st8" d="M25.8,38.5c5.3,0,10.9,1.3,16.6,3.9l-1.8,3c-5-2.2-9.9-3.3-14.7-3.3c-4.7,0-9.2,1.1-13.7,3.3l-1.8-2.9
				C15.3,39.7,20.4,38.5,25.8,38.5 M25.8,38c-5.4,0-10.6,1.3-15.6,3.9C10,42,9.9,42.1,9.9,42.2c0,0.1,0,0.3,0.1,0.4l1.8,2.9
				c0.1,0.2,0.3,0.2,0.4,0.2c0.1,0,0.1,0,0.2-0.1c4.3-2.1,8.9-3.2,13.5-3.2c4.7,0,9.5,1.1,14.5,3.3c0.1,0,0.1,0,0.2,0
				c0.2,0,0.3-0.1,0.4-0.2l1.8-3c0.1-0.1,0.1-0.3,0-0.4c0-0.1-0.1-0.2-0.3-0.3C36.8,39.3,31.1,38,25.8,38L25.8,38z"/>
		</g>
	</g>
	<path class="st8" d="M22.3,8v1.2l2.7,3.1v5.3c0,0.6,0.5,1.2,1.2,1.2c0.6,0,1.2-0.5,1.2-1.2v-5.3l2.4-3.4V8H22.3z"/>
	<g>
		<g>
			<g>
				<path class="st0" d="M25.8,30.7c-1.1-0.6-3-1.3-5.7-1.3c-0.2,0-0.6,0-0.6,0l-1.2-9.5l0.1,0c0.3,0,0.5,0,0.8,0
					c2.5,0,5,0.4,6.6,1.2l0.1,0v9.8L25.8,30.7z"/>
				<path class="st8" d="M19.3,20c2.3,0,4.8,0.4,6.6,1.2v9.5c-1.3-0.7-3.2-1.4-5.7-1.4c-0.2,0-0.3,0-0.5,0L18.5,20
					C18.7,20,19,20,19.3,20 M19.3,19.7c-0.3,0-0.6,0-0.8,0l-0.3,0l0,0.3l1.2,9.3l0,0.2l0.2,0c0.2,0,0.3,0,0.5,0
					c2.6,0,4.5,0.7,5.6,1.3l0.4,0.2v-0.4v-9.5V21l-0.1-0.1C24.3,20.2,21.8,19.7,19.3,19.7L19.3,19.7z"/>
			</g>
			<g>
				<path class="st0" d="M25.7,21.1L25.7,21.1c1.7-0.8,4.2-1.2,6.7-1.2c0.3,0,0.5,0,0.8,0l0.1,0l-1.2,9.5c0,0-0.4,0-0.6,0
					c-2.7,0-4.5,0.7-5.7,1.3l-0.2,0.1V21.1z"/>
				<path class="st8" d="M32.4,20c0.3,0,0.5,0,0.8,0L32,29.3c-0.2,0-0.3,0-0.5,0c-2.5,0-4.5,0.7-5.7,1.4v-9.5
					C27.6,20.3,30.1,20,32.4,20 M32.4,19.7c-2.5,0-5,0.4-6.7,1.2L25.6,21v0.2v9.5V31l0.4-0.2c1.1-0.6,3-1.3,5.6-1.3
					c0.2,0,0.3,0,0.5,0l0.2,0l0-0.2l1.2-9.3l0-0.3l-0.3,0C32.9,19.7,32.7,19.7,32.4,19.7L32.4,19.7z"/>
			</g>
		</g>
		<g>
			<g>
				<path class="st0" d="M25.8,30.7c-1.1-0.6-3-1.3-5.7-1.3c-0.2,0-0.6,0-0.6,0l-1.2-9.5l0.1,0c0.3,0,0.5,0,0.8,0
					c2.5,0,5,0.4,6.6,1.2l0.1,0v9.8L25.8,30.7z"/>
				<path class="st8" d="M19.3,20c2.3,0,4.8,0.4,6.6,1.2v9.5c-1.3-0.7-3.2-1.4-5.7-1.4c-0.2,0-0.3,0-0.5,0L18.5,20
					C18.7,20,19,20,19.3,20 M19.3,19.7c-0.3,0-0.6,0-0.8,0l-0.3,0l0,0.3l1.2,9.3l0,0.2l0.2,0c0.2,0,0.3,0,0.5,0
					c2.6,0,4.5,0.7,5.6,1.3l0.4,0.2v-0.4v-9.5V21l-0.1-0.1C24.3,20.2,21.8,19.7,19.3,19.7L19.3,19.7z"/>
			</g>
			<g>
				<path class="st0" d="M25.7,21.1L25.7,21.1c1.7-0.8,4.2-1.2,6.7-1.2c0.3,0,0.5,0,0.8,0l0.1,0l-1.2,9.5c0,0-0.4,0-0.6,0
					c-2.7,0-4.5,0.7-5.7,1.3l-0.2,0.1V21.1z"/>
				<path class="st8" d="M32.4,20c0.3,0,0.5,0,0.8,0L32,29.3c-0.2,0-0.3,0-0.5,0c-2.5,0-4.5,0.7-5.7,1.4v-9.5
					C27.6,20.3,30.1,20,32.4,20 M32.4,19.7c-2.5,0-5,0.4-6.7,1.2L25.6,21v0.2v9.5V31l0.4-0.2c1.1-0.6,3-1.3,5.6-1.3
					c0.2,0,0.3,0,0.5,0l0.2,0l0-0.2l1.2-9.3l0-0.3l-0.3,0C32.9,19.7,32.7,19.7,32.4,19.7L32.4,19.7z"/>
			</g>
		</g>
		<g>
			<path class="st9" d="M18.7,21.5c2.6-0.3,4.9,0,7,1"/>
			<path class="st9" d="M18.8,23.2c2.6-0.3,4.9,0.3,7,1.3"/>
			<path class="st9" d="M18.9,24.7c2.6-0.3,4.8,0.4,6.9,1.6"/>
			<path class="st9" d="M19.1,26.4c2.6-0.3,5.1,0.3,6.8,1.7"/>
			<path class="st9" d="M19.3,27.8c2.5,0,4.9,0.5,6.6,1.8"/>
		</g>
		<g>
			<path class="st9" d="M33,21.6c-2.6-0.3-4.9,0-7,1"/>
			<path class="st9" d="M32.9,23.3c-2.6-0.3-4.9,0.3-7,1.3"/>
			<path class="st9" d="M32.8,24.8c-2.6-0.3-4.8,0.4-6.9,1.6"/>
			<path class="st9" d="M32.6,26.5c-2.6-0.3-5.1,0.3-6.8,1.7"/>
			<path class="st9" d="M32.4,27.9c-2.5,0-4.8,0.5-6.5,1.7"/>
		</g>
		<line class="st9" x1="25.8" y1="30.8" x2="25.8" y2="20.9"/>
	</g>
	<g>
		<text transform="matrix(0.6898 0 0 1 20.4739 27.4961)" class="st3 st10 st11">YKB</text>
	</g>
	<g>
		<g>
			<path class="st8" d="M12.7,43.9c-0.1-0.2-0.1-0.3-0.2-0.5c-0.3-0.2-0.5-0.3-0.8-0.5c0.1-0.1,0.2-0.1,0.3-0.1
				c0.2,0.1,0.3,0.2,0.6,0.4c0-0.3,0.1-0.4,0.1-0.7c0.1-0.1,0.2-0.1,0.3-0.1c-0.1,0.4-0.1,0.6-0.2,1c0.1,0.2,0.1,0.3,0.2,0.5
				C12.9,43.9,12.8,43.9,12.7,43.9z"/>
			<path class="st8" d="M14.7,43.1c-0.1,0-0.2,0.1-0.3,0.1c-0.1-0.1-0.1-0.2-0.2-0.3c-0.2,0.1-0.3,0.1-0.6,0.2c0,0.1,0,0.2,0,0.3
				c-0.1,0-0.2,0.1-0.3,0.1c0-0.6,0-0.9,0-1.5c0.1,0,0.2-0.1,0.3-0.1C14.1,42.5,14.3,42.7,14.7,43.1z M14,42.8
				c-0.2-0.2-0.2-0.3-0.4-0.4c0,0.2,0,0.3,0,0.6C13.8,42.9,13.8,42.9,14,42.8z"/>
			<path class="st8" d="M15,43c-0.1-0.2-0.1-0.3-0.2-0.6c-0.3-0.2-0.5-0.4-0.8-0.6c0.1-0.1,0.2-0.1,0.3-0.1c0.2,0.2,0.3,0.2,0.5,0.4
				c0.1-0.3,0.1-0.4,0.2-0.6c0.1,0,0.2-0.1,0.3-0.1c-0.1,0.4-0.2,0.6-0.3,1c0.1,0.2,0.1,0.3,0.2,0.6C15.2,43,15.2,43,15,43z"/>
			<path class="st8" d="M17.1,42.4c-0.1,0-0.2,0.1-0.3,0.1c-0.1-0.1-0.1-0.2-0.2-0.3c-0.2,0.1-0.3,0.1-0.6,0.2c0,0.1,0,0.2,0,0.3
				c-0.1,0-0.2,0.1-0.3,0.1c0-0.6,0.1-0.9,0.1-1.5c0.1,0,0.2-0.1,0.3-0.1C16.5,41.7,16.7,41.9,17.1,42.4z M16.4,42
				c-0.1-0.2-0.2-0.3-0.4-0.4c0,0.2,0,0.3,0,0.6C16.1,42.1,16.2,42,16.4,42z"/>
			<path class="st8" d="M17,41.9c0.1,0,0.2-0.1,0.3-0.1c0,0.1,0.1,0.1,0.2,0.2c0.1,0,0.1,0,0.2,0c0.1,0,0.2-0.1,0.2-0.1
				c0,0,0-0.1,0-0.2c0,0,0-0.1-0.1-0.1c0,0-0.1,0-0.1,0c0,0-0.1,0-0.2,0c-0.2,0-0.3,0-0.4,0c-0.1-0.1-0.2-0.1-0.2-0.2
				c0-0.1,0-0.1,0-0.2c0-0.1,0.1-0.1,0.1-0.2c0.1-0.1,0.2-0.1,0.3-0.1c0.2,0,0.3,0,0.4,0c0.1,0.1,0.2,0.1,0.2,0.3
				c-0.1,0-0.2,0.1-0.3,0.1c0-0.1-0.1-0.1-0.1-0.1c0,0-0.1,0-0.2,0c-0.1,0-0.1,0.1-0.2,0.1c0,0,0,0.1,0,0.1c0,0,0,0.1,0.1,0.1
				c0,0,0.1,0,0.3,0c0.2,0,0.3,0,0.3,0c0.1,0,0.1,0.1,0.2,0.1c0.1,0,0.1,0.1,0.1,0.2c0,0.1,0,0.2,0,0.2c0,0.1-0.1,0.1-0.2,0.2
				c-0.1,0.1-0.2,0.1-0.3,0.1c-0.2,0-0.3,0-0.4,0C17.2,42.2,17.1,42.1,17,41.9z"/>
			<path class="st8" d="M19.8,41.7c-0.1,0-0.2,0-0.3,0.1c-0.1-0.1-0.1-0.2-0.2-0.3c-0.2,0-0.3,0.1-0.6,0.1c0,0.1,0,0.2,0,0.3
				c-0.1,0-0.2,0-0.3,0.1c0.1-0.6,0.1-0.9,0.3-1.5c0.1,0,0.2,0,0.3-0.1C19.3,41,19.5,41.2,19.8,41.7z M19.2,41.3
				c-0.1-0.2-0.2-0.3-0.3-0.5c0,0.2-0.1,0.3-0.1,0.6C18.9,41.3,19,41.3,19.2,41.3z"/>
			<path class="st8" d="M20,41.7c-0.1-0.6-0.2-0.8-0.3-1.4c0.1,0,0.2,0,0.3-0.1c0.3,0.3,0.5,0.5,0.8,0.8c-0.1-0.4-0.1-0.6-0.2-0.9
				c0.1,0,0.2,0,0.3,0c0.1,0.6,0.1,0.8,0.2,1.4c-0.1,0-0.2,0-0.3,0c-0.3-0.3-0.4-0.5-0.7-0.8c0.1,0.4,0.1,0.5,0.2,0.9
				C20.1,41.7,20.1,41.7,20,41.7z"/>
			<path class="st8" d="M22,41.4c-0.1-0.6-0.1-0.8-0.2-1.4c0.1,0,0.2,0,0.3,0c0,0.3,0,0.4,0.1,0.6c0.2-0.3,0.3-0.4,0.5-0.7
				c0.2,0,0.2,0,0.4,0c-0.2,0.2-0.3,0.4-0.5,0.6c0.3,0.3,0.4,0.5,0.7,0.8c-0.2,0-0.2,0-0.4,0c-0.2-0.2-0.3-0.4-0.5-0.6
				c-0.1,0.1-0.1,0.2-0.2,0.3c0,0.2,0,0.3,0.1,0.4C22.2,41.4,22.1,41.4,22,41.4z"/>
			<path class="st8" d="M23.5,41.2c0-0.6-0.1-0.8-0.1-1.4c0.4,0,0.7-0.1,1.1-0.1c0,0.1,0,0.1,0,0.2c-0.3,0-0.5,0-0.8,0.1
				c0,0.1,0,0.2,0,0.3c0.3,0,0.4,0,0.7,0c0,0.1,0,0.1,0,0.2c-0.3,0-0.4,0-0.7,0c0,0.2,0,0.2,0,0.4c0.3,0,0.5,0,0.8-0.1
				c0,0.1,0,0.1,0,0.2C24.1,41.2,23.9,41.2,23.5,41.2z"/>
			<path class="st8" d="M24.8,41.1c0-0.6,0-0.8-0.1-1.4c0.1,0,0.2,0,0.3,0c0,0.5,0,0.7,0,1.2c0.3,0,0.4,0,0.7,0c0,0.1,0,0.1,0,0.2
				C25.4,41.1,25.2,41.1,24.8,41.1z"/>
			<path class="st8" d="M26,39.7c0.1,0,0.2,0,0.3,0c0,0.3,0,0.5,0,0.8c0,0.1,0,0.2,0,0.2c0,0.1,0,0.1,0.1,0.1c0,0,0.1,0.1,0.2,0.1
				c0.1,0,0.1,0,0.2,0c0,0,0.1-0.1,0.1-0.1c0,0,0-0.1,0-0.2c0-0.3,0-0.5,0-0.8c0.1,0,0.2,0,0.3,0c0,0.3,0,0.4,0,0.7
				c0,0.2,0,0.3,0,0.4c0,0.1,0,0.1-0.1,0.2c0,0-0.1,0.1-0.2,0.1c-0.1,0-0.2,0-0.3,0c-0.1,0-0.2,0-0.3,0c-0.1,0-0.1-0.1-0.2-0.1
				c0,0-0.1-0.1-0.1-0.2c0-0.1,0-0.2,0-0.4C26,40.2,26,40,26,39.7z"/>
			<path class="st8" d="M28.8,41.2c-0.1,0-0.2,0-0.3,0c0-0.1-0.1-0.2-0.1-0.3c-0.2,0-0.4,0-0.6,0c-0.1,0.1-0.1,0.2-0.1,0.3
				c-0.1,0-0.2,0-0.3,0c0.2-0.6,0.4-0.8,0.6-1.4c0.1,0,0.2,0,0.3,0C28.5,40.3,28.6,40.6,28.8,41.2z M28.3,40.6
				c-0.1-0.2-0.1-0.3-0.2-0.5c-0.1,0.2-0.1,0.3-0.2,0.5C28.1,40.6,28.2,40.6,28.3,40.6z"/>
			<path class="st8" d="M29,41.2c0-0.6,0.1-0.8,0.1-1.4c0.3,0,0.4,0,0.6,0.1c0.2,0,0.3,0,0.3,0.1s0.1,0.1,0.2,0.2c0,0.1,0,0.1,0,0.2
				c0,0.1-0.1,0.2-0.1,0.3c-0.1,0.1-0.2,0.1-0.3,0.1c0.1,0,0.1,0.1,0.1,0.1c0,0,0.1,0.1,0.1,0.2c0.1,0.1,0.1,0.2,0.1,0.3
				c-0.1,0-0.2,0-0.3,0c-0.1-0.1-0.1-0.2-0.2-0.3c-0.1-0.1-0.1-0.2-0.1-0.2c0,0-0.1-0.1-0.1-0.1c0,0-0.1,0-0.1,0c0,0,0,0-0.1,0
				c0,0.2,0,0.4-0.1,0.6C29.2,41.2,29.1,41.2,29,41.2z M29.3,40.4c0.1,0,0.1,0,0.2,0c0.1,0,0.2,0,0.3,0c0,0,0.1,0,0.1-0.1
				c0,0,0-0.1,0-0.1c0,0,0-0.1,0-0.1c0,0-0.1-0.1-0.1-0.1c0,0-0.1,0-0.2,0c-0.1,0-0.1,0-0.2,0C29.4,40.2,29.4,40.3,29.3,40.4z"/>
			<path class="st8" d="M31.2,40.9c0-0.1,0-0.1,0-0.2c0.3,0,0.4,0.1,0.6,0.1c0,0.2-0.1,0.3-0.1,0.6c-0.1,0-0.2,0.1-0.3,0.1
				c-0.1,0-0.2,0-0.4,0c-0.2,0-0.3-0.1-0.4-0.1c-0.1-0.1-0.2-0.2-0.2-0.3c0-0.1-0.1-0.3,0-0.4c0-0.1,0.1-0.3,0.1-0.4
				c0.1-0.1,0.2-0.2,0.3-0.2c0.1,0,0.2,0,0.4,0c0.2,0,0.3,0.1,0.4,0.2c0.1,0.1,0.1,0.2,0.2,0.3c-0.1,0-0.2,0-0.3,0
				c0-0.1,0-0.1-0.1-0.2s-0.1-0.1-0.2-0.1c-0.1,0-0.2,0-0.3,0.1c-0.1,0.1-0.1,0.2-0.2,0.3c0,0.2,0,0.3,0.1,0.4
				c0.1,0.1,0.2,0.1,0.3,0.2c0.1,0,0.1,0,0.2,0c0.1,0,0.1,0,0.2-0.1c0-0.1,0-0.1,0-0.2C31.4,41,31.3,41,31.2,40.9z"/>
			<path class="st8" d="M33.3,41.8c-0.1,0-0.2,0-0.3-0.1c0-0.1,0-0.2-0.1-0.3c-0.2,0-0.3-0.1-0.6-0.1c-0.1,0.1-0.1,0.2-0.2,0.3
				c-0.1,0-0.2,0-0.3-0.1c0.3-0.5,0.5-0.8,0.8-1.3c0.1,0,0.2,0,0.3,0.1C33.1,40.9,33.2,41.2,33.3,41.8z M32.9,41.2
				c0-0.2-0.1-0.3-0.1-0.6c-0.1,0.2-0.2,0.3-0.3,0.5C32.6,41.1,32.7,41.1,32.9,41.2z"/>
			<path class="st8" d="M34.3,40.6c0.2,0.1,0.4,0.1,0.6,0.1c0.1,0,0.2,0.1,0.3,0.1c0.1,0,0.1,0.1,0.1,0.1c0,0,0.1,0.1,0.1,0.1
				c0,0.1,0,0.1,0,0.2c0,0.1-0.1,0.1-0.1,0.2c-0.1,0-0.1,0.1-0.2,0.1c0.1,0,0.1,0.1,0.2,0.2c0,0.1,0,0.1,0,0.2c0,0.1,0,0.1-0.1,0.2
				c0,0.1-0.1,0.1-0.2,0.1c-0.1,0-0.1,0-0.2,0c0,0-0.2,0-0.3-0.1c-0.2,0-0.3-0.1-0.5-0.1C34.1,41.4,34.1,41.1,34.3,40.6z M34.5,40.9
				c0,0.1,0,0.2-0.1,0.3c0.1,0,0.1,0,0.2,0c0.1,0,0.2,0,0.2,0c0.1,0,0.1,0,0.1,0c0,0,0.1-0.1,0.1-0.1c0,0,0-0.1,0-0.1
				c0,0-0.1-0.1-0.1-0.1c0,0-0.1,0-0.3-0.1C34.6,40.9,34.6,40.9,34.5,40.9z M34.4,41.4c0,0.1-0.1,0.2-0.1,0.4c0.1,0,0.2,0,0.3,0.1
				c0.1,0,0.2,0,0.2,0c0,0,0.1,0,0.1,0c0,0,0.1-0.1,0.1-0.1c0,0,0-0.1,0-0.1c0,0,0-0.1-0.1-0.1c0,0-0.1-0.1-0.3-0.1
				C34.5,41.5,34.5,41.5,34.4,41.4z"/>
			<path class="st8" d="M36.6,42.7c-0.1,0-0.2-0.1-0.3-0.1c0-0.1,0-0.2,0-0.3c-0.2-0.1-0.3-0.1-0.6-0.2c-0.1,0.1-0.1,0.2-0.2,0.3
				c-0.1,0-0.2-0.1-0.3-0.1c0.4-0.5,0.6-0.7,0.9-1.2c0.1,0,0.2,0.1,0.3,0.1C36.6,41.8,36.6,42.1,36.6,42.7z M36.3,42
				c0-0.2,0-0.3,0-0.6c-0.1,0.2-0.2,0.3-0.3,0.4C36,41.9,36.1,42,36.3,42z"/>
			<path class="st8" d="M37,42.8c0.1-0.4,0.2-0.7,0.4-1.1c-0.2-0.1-0.3-0.1-0.4-0.1c0-0.1,0-0.1,0.1-0.2c0.5,0.1,0.7,0.2,1.2,0.4
				c0,0.1,0,0.1-0.1,0.2c-0.2-0.1-0.3-0.1-0.4-0.1c-0.2,0.4-0.2,0.7-0.4,1.1C37.1,42.9,37.1,42.9,37,42.8z"/>
			<path class="st8" d="M38.9,43.5c-0.1,0-0.2-0.1-0.3-0.1c0-0.1,0-0.2,0-0.3c-0.2-0.1-0.3-0.1-0.6-0.2C38,43,37.9,43,37.8,43.1
				c-0.1,0-0.2-0.1-0.3-0.1c0.4-0.5,0.6-0.7,1-1.1c0.1,0,0.2,0.1,0.3,0.1C38.9,42.6,38.9,42.9,38.9,43.5z M38.6,42.8
				c0-0.2,0-0.3,0-0.6c-0.2,0.2-0.2,0.3-0.4,0.4C38.4,42.7,38.5,42.7,38.6,42.8z"/>
			<path class="st8" d="M39.1,43.6c0.2-0.5,0.3-0.8,0.5-1.3c0.2,0.1,0.3,0.1,0.4,0.2c0,0.4-0.1,0.6-0.1,1c0.3-0.3,0.4-0.5,0.6-0.8
				c0.2,0.1,0.3,0.1,0.4,0.2c-0.2,0.5-0.4,0.8-0.6,1.3c-0.1,0-0.2-0.1-0.3-0.1c0.2-0.4,0.3-0.6,0.5-1c-0.3,0.4-0.4,0.5-0.7,0.9
				c-0.1,0-0.2-0.1-0.3-0.1c0.1-0.5,0.1-0.7,0.2-1.1c-0.2,0.4-0.3,0.6-0.4,1C39.2,43.6,39.2,43.6,39.1,43.6z"/>
		</g>
	</g>
</g>
</svg>
