<svg id="Layer_1" data-name="Layer 1" xmlns="http://www.w3.org/2000/svg" viewBox="0 0 51.34 50.5"><defs><style>.cls-1{fill:#134a8a;}.cls-2{fill:#1d9647;stroke:#000;stroke-width:0.5px;}.cls-10,.cls-2,.cls-4,.cls-7{stroke-miterlimit:10;}.cls-11,.cls-3{fill:#ec1e24;}.cls-10,.cls-4{fill:none;}.cls-10,.cls-4,.cls-5,.cls-6,.cls-7{stroke:#231f20;}.cls-4{stroke-width:0.75px;}.cls-5{fill:#0da74b;}.cls-5,.cls-6{stroke-linecap:round;stroke-linejoin:round;}.cls-5,.cls-6,.cls-7{stroke-width:0.1px;}.cls-6,.cls-8{fill:#fff;}.cls-7{fill:#f7e508;}.cls-9{fill:#231f20;}.cls-10{stroke-width:0.25px;}.cls-11{font-size:7.15px;font-family:Arial-BoldMT, Arial;font-weight:700;}</style></defs><title>Logo</title><polygon class="cls-1" points="25.89 0 0 17.44 10.33 47.56 41.67 47.56 51.34 17.36 25.89 0"/><path class="cls-2" d="M16.15,25.21a2.9,2.9,0,0,0-1.12-3c-.88-.62-.88-.78-.88-.78a5,5,0,0,0-.13-.83A13.75,13.75,0,0,1,13.77,19c0-.31.09-2.05.09-2.05l.31-.86h.95a1.2,1.2,0,0,1,.61.35,9.84,9.84,0,0,0,1.81,1.3,3.36,3.36,0,0,0,2,0c.46-.28.95-.79,1.81-.2.26.23.5-.48.5-.48s-.13-.7.11-1a3.73,3.73,0,0,1,.86-.6,2.29,2.29,0,0,0,0-1.25L22,12.85s-.31-.66,0-1,.64-.88,1.27-.72,1.19.17,1.57,1a1.07,1.07,0,0,0,1.32.55l.42.51s1-.06,1.28.18a1.61,1.61,0,0,1,.84,1.5c0,.94-.35,1.08-.35,1.08v.61a4.5,4.5,0,0,1,1,1,1.87,1.87,0,0,0,.86.88c.22.06.44-.13.59-.55a4.47,4.47,0,0,1,.75-1.35c.2-.19.34-.26.29-.68a3.16,3.16,0,0,0-.57-1.1c-.09-.13-.33-.64-.22-.9s.37-.8.7-.8a2,2,0,0,1,1.37.91c.35.59.75.5.75.5a1.81,1.81,0,0,1,.82,1,8.93,8.93,0,0,1,0,2.18,2.43,2.43,0,0,0,.86,1.07,10.36,10.36,0,0,1,1.67,1.71s1.28,1.77,1.1,2.52a5.15,5.15,0,0,1-1.06,1.92,5.68,5.68,0,0,0-.74,1c-.11.24-.71.68-.87.86s-.66.64-.7.83-.11,1.32-.11,1.55a3.7,3.7,0,0,0,.53,1.69,12.78,12.78,0,0,1,1.41,1.63,3.57,3.57,0,0,1,0,1.42c-.13.24-.72,1.1-.72,1.1a3,3,0,0,0-1.39.11c-.44.24-1.28.94-2,.68a3.32,3.32,0,0,1-1.32-1c-.28-.26-1.23-1.12-1.67-.13-.24.55,1.41,2.42,1.41,2.42a2.42,2.42,0,0,1,1,1.54c.06.87-.44.56-.44.56l-6.48-.44a4.15,4.15,0,0,0-.27-1.13,3.49,3.49,0,0,0-1.34-1.52c-.26-.16-.44-1.56-.44-1.56s-.36-1.19-.73-.89-.9.42-.93,1.26a11.6,11.6,0,0,1-.15,2.53c-.22.75-.35,1-.71,1A2.84,2.84,0,0,1,19,38.09a6.88,6.88,0,0,1-1.33-1.42s-.11-.72.44-.35a.68.68,0,0,0,.89-.08c.08-.16.65-1.53.65-1.53s.12-.61-.21-.73-.47.09-.73.05-1.08-.2-1.24-.57a.72.72,0,0,1,.2-.84c.15-.09,1-.77.82-1.34a1.31,1.31,0,0,0-1.39-.84,15.28,15.28,0,0,0-1.63.92c-.35.13-1,.77-1.55.66a1.74,1.74,0,0,1-1-.77,3.44,3.44,0,0,0,.15-1.19A2.34,2.34,0,0,0,12.6,29l-.85-1.25a2.15,2.15,0,0,1-.21-.88c0-.4,0-1,.31-1.3s.91-.73,1.26-.67a12.53,12.53,0,0,1,1.57.18A8.53,8.53,0,0,0,16.15,25.21Z"/><path class="cls-3" d="M22.28,7.37h7.43v-.7a.75.75,0,0,0-.65-.6c-.3-.09-.28-.73-.28-.73a3,3,0,0,0-.43-1,6.38,6.38,0,0,1-.12,1,3.83,3.83,0,0,0,0,.75c0,.13-.19.35-.35,0s-.14-.8-.31-1a2,2,0,0,1-.1-.93,1.69,1.69,0,0,1-.17-.61c-.17.21-.15.48-.26.61s0,1-.05,1.22-.46.48-.6,0a23.52,23.52,0,0,1-.06-3.05,1.71,1.71,0,0,1-.2-.48c0-.22-.23-.24-.23-.05a3.24,3.24,0,0,1-.13.5c0,.13,0,2.53,0,2.53s-.14.68-.68.3c-.21-.15-.18-.84-.18-.84A.4.4,0,0,1,25,4a.76.76,0,0,0-.09-.72,1,1,0,0,1-.26-.61,1.78,1.78,0,0,0-.29,1.09c.06.54.27,1.14.28,1.32s.08.47,0,.59a.3.3,0,0,1-.54-.14,3.16,3.16,0,0,1,0-1.27c0-.19-.14-.5-.15-.61s-.15-.15-.2.06a2.1,2.1,0,0,0-.14.69,8.68,8.68,0,0,1,.14,1,1.53,1.53,0,0,1-.27.85c-.17.17-.37.3-.47,0a2.41,2.41,0,0,1-.12-1c-.12,0-.15.07-.2.22s-.17.67-.25.84S22.28,6.66,22.28,7.37Z"/><path class="cls-4" d="M13.71,38.8c-7.86-9.24-10.32-18.9,2.7-28.15"/><path class="cls-5" d="M19.49,10.75a1.16,1.16,0,0,1-.72-1,2.9,2.9,0,0,1,.13-.94s-.74.18-.86.1c-.39-.25-.28-1-.27-1.14l-.1.06c-3.2,1.83-1.29,5,1.95,3A.33.33,0,0,1,19.49,10.75Z"/><path class="cls-6" d="M17.73,7.84s-.12.79.31,1.07c.12.08.86-.1.86-.1a2.9,2.9,0,0,0-.13.94,1.16,1.16,0,0,0,.72,1c.39.2.61-.33.61-.33s.1-.19-.17-.42a.79.79,0,0,1-.2-.92c.12-.34,0-.78-.39-.85s-.56,0-.72-.35-.17-.55-.5-.42A.67.67,0,0,0,17.73,7.84Z"/><path class="cls-5" d="M15.74,13.53a1.17,1.17,0,0,1-.73-1,3.13,3.13,0,0,1,.14-.94s-.74.18-.86.1c-.39-.25-.28-1-.27-1.14l-.11.06c-3.19,1.83-1.29,5,2,3A.33.33,0,0,1,15.74,13.53Z"/><path class="cls-6" d="M14,10.62s-.12.8.31,1.07c.12.08.86-.1.86-.1a3.13,3.13,0,0,0-.14.94,1.17,1.17,0,0,0,.73,1c.39.2.61-.33.61-.33s.1-.19-.17-.42a.79.79,0,0,1-.21-.92.59.59,0,0,0-.38-.85c-.43-.07-.56,0-.72-.34s-.17-.56-.5-.43A.64.64,0,0,0,14,10.62Z"/><path class="cls-5" d="M12.3,16.38a1.17,1.17,0,0,1-1-.76,2.87,2.87,0,0,1-.13-.95s-.66.38-.8.34c-.45-.14-.55-.91-.57-1l-.09.08c-2.57,2.64.15,5.2,2.69,2.31A.28.28,0,0,1,12.3,16.38Z"/><path class="cls-6" d="M9.81,14.06s.1.8.59.95c.14,0,.8-.34.8-.34a2.87,2.87,0,0,0,.13.95,1.17,1.17,0,0,0,1,.76c.43.08.49-.49.49-.49s.05-.21-.28-.35a.81.81,0,0,1-.44-.83c0-.36-.17-.76-.61-.71s-.54.11-.79-.14-.31-.49-.59-.27A.63.63,0,0,0,9.81,14.06Z"/><path class="cls-5" d="M10.39,20.4A1.33,1.33,0,0,1,9.06,20a3.38,3.38,0,0,1-.53-.93s-.53.67-.69.68c-.52,0-1-.71-1-.82l0,.12c-1.57,3.84,2.34,5.37,3.78,1.28A.34.34,0,0,1,10.39,20.4Z"/><path class="cls-6" d="M6.82,19s.45.79,1,.73c.16,0,.69-.68.69-.68a3.38,3.38,0,0,0,.53.93,1.33,1.33,0,0,0,1.33.39c.49-.1.32-.72.32-.72s0-.24-.44-.25a.9.9,0,0,1-.82-.68.66.66,0,0,0-.93-.49c-.43.24-.52.35-.88.2s-.53-.39-.73,0A.72.72,0,0,0,6.82,19Z"/><path class="cls-5" d="M9.11,24.93a1.34,1.34,0,0,1-1.38.13,3.44,3.44,0,0,1-.84-.68s-.25.82-.39.89c-.47.24-1.16-.31-1.26-.39V25c-.06,4.15,4.14,4.15,4-.18A.27.27,0,0,1,9.11,24.93Z"/><path class="cls-6" d="M5.28,25s.7.57,1.22.31c.14-.07.39-.89.39-.89a3.44,3.44,0,0,0,.84.68,1.34,1.34,0,0,0,1.38-.13c.42-.26,0-.78,0-.78s-.13-.21-.51-.07a.91.91,0,0,1-1-.34.66.66,0,0,0-1-.11c-.32.37-.37.51-.75.49s-.64-.16-.69.24A.73.73,0,0,0,5.28,25Z"/><path class="cls-5" d="M9.94,29.71a1.32,1.32,0,0,1-1.27.55,3.39,3.39,0,0,1-1-.38s0,.86-.1,1c-.37.37-1.19.06-1.32,0l0,.13c1.24,4,5.23,2.64,3.73-1.43A.34.34,0,0,1,9.94,29.71Z"/><path class="cls-6" d="M6.32,30.93s.84.32,1.25-.08c.12-.11.1-1,.1-1a3.39,3.39,0,0,0,1,.38,1.32,1.32,0,0,0,1.27-.55c.32-.39-.21-.76-.21-.76s-.19-.15-.5.09a.9.9,0,0,1-1.06,0,.67.67,0,0,0-1,.22c-.18.45-.18.6-.56.71s-.65,0-.58.44A.72.72,0,0,0,6.32,30.93Z"/><path class="cls-5" d="M12.53,34.18a1.34,1.34,0,0,1-1.12.82,3.46,3.46,0,0,1-1.06-.15s.21.83.12,1c-.28.45-1.15.32-1.28.31l.06.12c2.07,3.59,5.68,1.43,3.33-2.21A.44.44,0,0,1,12.53,34.18Z"/><path class="cls-6" d="M9.26,36.17s.9.13,1.21-.36c.09-.13-.12-1-.12-1a3.46,3.46,0,0,0,1.06.15,1.34,1.34,0,0,0,1.12-.82c.23-.44-.37-.69-.37-.69s-.22-.11-.47.2a.9.9,0,0,1-1,.23c-.38-.13-.88-.05-1,.43s0,.63-.39.82-.63.19-.47.56A.73.73,0,0,0,9.26,36.17Z"/><path class="cls-4" d="M37.17,38.8c7.86-9.24,10.32-18.9-2.7-28.15"/><path class="cls-7" d="M38.53,32.91a2.66,2.66,0,0,1,.64,3.46A2.26,2.26,0,0,1,38.53,32.91Z"/><path class="cls-7" d="M39.72,31.1c1,.85,1.27,1.95.64,3.46A2.26,2.26,0,0,1,39.72,31.1Z"/><path class="cls-7" d="M40.71,29.37a2.69,2.69,0,0,1,.64,3.46A2.26,2.26,0,0,1,40.71,29.37Z"/><path class="cls-7" d="M41.1,27.46a2.68,2.68,0,0,1,1.43,3.21A2.25,2.25,0,0,1,41.1,27.46Z"/><path class="cls-7" d="M41.25,25.55c1.28.37,1.94,1.28,2,2.92A2.26,2.26,0,0,1,41.25,25.55Z"/><path class="cls-7" d="M41.18,23.81a2.68,2.68,0,0,1,2.47,2.51A2.27,2.27,0,0,1,41.18,23.81Z"/><path class="cls-7" d="M40.74,22a2.67,2.67,0,0,1,2.78,2.15A2.26,2.26,0,0,1,40.74,22Z"/><path class="cls-7" d="M40,20.42a2.69,2.69,0,0,1,3.2,1.47A2.26,2.26,0,0,1,40,20.42Z"/><path class="cls-7" d="M39.29,18.55A2.68,2.68,0,0,1,42.49,20,2.25,2.25,0,0,1,39.29,18.55Z"/><path class="cls-7" d="M38,17.22a2.68,2.68,0,0,1,3.45.69A2.26,2.26,0,0,1,38,17.22Z"/><path class="cls-7" d="M36.87,15.58a2.68,2.68,0,0,1,3.45.68A2.26,2.26,0,0,1,36.87,15.58Z"/><path class="cls-7" d="M35.22,13.91a2.67,2.67,0,0,1,3.45.68A2.26,2.26,0,0,1,35.22,13.91Z"/><path class="cls-7" d="M33.89,12c1.24-.47,2.32-.14,3.32,1.17A2.26,2.26,0,0,1,33.89,12Z"/><path class="cls-7" d="M34.86,10.78c-.58-1.2-1.6-1.69-3.21-1.43A2.26,2.26,0,0,0,34.86,10.78Z"/><path class="cls-7" d="M36,9a2.64,2.64,0,0,0,.82,3.43A2.23,2.23,0,0,0,36,9Z"/><path class="cls-7" d="M37.91,10.1a2.63,2.63,0,0,0,.29,3.51A2.23,2.23,0,0,0,37.91,10.1Z"/><path class="cls-7" d="M39.76,11.25c-1,.95-1.11,2.07-.32,3.51A2.23,2.23,0,0,0,39.76,11.25Z"/><path class="cls-7" d="M41.06,12.74a2.63,2.63,0,0,0-.37,3.5A2.23,2.23,0,0,0,41.06,12.74Z"/><path class="cls-7" d="M42.56,14.24a2.64,2.64,0,0,0-1,3.39A2.22,2.22,0,0,0,42.56,14.24Z"/><path class="cls-7" d="M43.7,15.89a2.64,2.64,0,0,0-1.36,3.25A2.22,2.22,0,0,0,43.7,15.89Z"/><path class="cls-7" d="M44.63,17.52c-1.21.61-1.68,1.63-1.36,3.25A2.23,2.23,0,0,0,44.63,17.52Z"/><path class="cls-7" d="M45.37,19.62a2.63,2.63,0,0,0-1.5,3.18A2.22,2.22,0,0,0,45.37,19.62Z"/><path class="cls-7" d="M46.32,22.2c-1.34.19-2.12,1-2.34,2.64A2.23,2.23,0,0,0,46.32,22.2Z"/><path class="cls-7" d="M46.42,24.52A2.63,2.63,0,0,0,43.89,27,2.22,2.22,0,0,0,46.42,24.52Z"/><path class="cls-7" d="M46.42,27a2.64,2.64,0,0,0-3,1.88A2.22,2.22,0,0,0,46.42,27Z"/><path class="cls-7" d="M45.58,29.23a2.64,2.64,0,0,0-3,1.88A2.22,2.22,0,0,0,45.58,29.23Z"/><path class="cls-7" d="M44.82,31.9c-1.28-.42-2.34,0-3.25,1.35A2.23,2.23,0,0,0,44.82,31.9Z"/><path class="cls-7" d="M43.73,34.08a2.63,2.63,0,0,0-3.39,1A2.23,2.23,0,0,0,43.73,34.08Z"/><path class="cls-7" d="M42.67,36.13a2.63,2.63,0,0,0-3.47.58A2.22,2.22,0,0,0,42.67,36.13Z"/><path class="cls-8" d="M6.74,50.25H6.66A.27.27,0,0,1,6.49,50a5.51,5.51,0,0,1,1-3L5.23,47A.26.26,0,0,1,5,46.79a.25.25,0,0,1,0-.27,21.46,21.46,0,0,1,5.1-3.8.2.2,0,0,1,.11,0,.27.27,0,0,1,.22.12l1.83,3a.26.26,0,0,1,0,.21.24.24,0,0,1-.16.15,11.52,11.52,0,0,0-5.24,4A.23.23,0,0,1,6.74,50.25Z"/><path class="cls-9" d="M10.26,42.94l1.83,3A11.85,11.85,0,0,0,6.74,50,5.53,5.53,0,0,1,8,46.72l-2.73,0a21.25,21.25,0,0,1,5-3.76m0-.5a.49.49,0,0,0-.23.06,21.43,21.43,0,0,0-5.15,3.84.48.48,0,0,0-.11.54.5.5,0,0,0,.45.32H7A5.62,5.62,0,0,0,6.24,50a.5.5,0,0,0,.33.47.5.5,0,0,0,.56-.16,11.22,11.22,0,0,1,5.12-3.9.49.49,0,0,0,.31-.3.47.47,0,0,0,0-.43l-1.83-3a.51.51,0,0,0-.43-.24Z"/><path class="cls-8" d="M46,50.24a.25.25,0,0,1-.2-.09,11.37,11.37,0,0,0-5.24-4,.26.26,0,0,1-.15-.16.22.22,0,0,1,0-.21l1.83-3a.27.27,0,0,1,.21-.12.27.27,0,0,1,.12,0,21.42,21.42,0,0,1,5.09,3.8.25.25,0,0,1,.06.27.25.25,0,0,1-.23.16l-2.26,0a5.52,5.52,0,0,1,1,3,.26.26,0,0,1-.17.24Z"/><path class="cls-9" d="M42.49,42.93a21.3,21.3,0,0,1,5,3.76l-2.73,0A5.6,5.6,0,0,1,46,50a11.87,11.87,0,0,0-5.36-4.06l1.83-3m0-.5a.49.49,0,0,0-.42.24l-1.83,3a.5.5,0,0,0-.05.43.54.54,0,0,0,.31.3,11.25,11.25,0,0,1,5.13,3.91.48.48,0,0,0,.39.18l.17,0a.5.5,0,0,0,.33-.47,5.55,5.55,0,0,0-.8-2.78l1.81,0a.52.52,0,0,0,.46-.32.49.49,0,0,0-.11-.54,21.74,21.74,0,0,0-5.16-3.84.46.46,0,0,0-.23-.06Z"/><path class="cls-8" d="M40.54,45.58a.16.16,0,0,1-.1,0,36.17,36.17,0,0,0-14.59-3.32,30.75,30.75,0,0,0-13.58,3.23l-.11,0a.25.25,0,0,1-.22-.12l-1.76-2.92a.24.24,0,0,1,0-.2.26.26,0,0,1,.12-.15,33.08,33.08,0,0,1,15.49-3.9A40.76,40.76,0,0,1,42.44,42.1a.25.25,0,0,1,.14.16.24.24,0,0,1,0,.2l-1.8,3A.24.24,0,0,1,40.54,45.58Z"/><path class="cls-9" d="M25.76,38.46a40.32,40.32,0,0,1,16.58,3.87l-1.8,3A36.34,36.34,0,0,0,25.85,42a30.77,30.77,0,0,0-13.69,3.26l-1.77-2.92a32.67,32.67,0,0,1,15.37-3.87m0-.5a33.28,33.28,0,0,0-15.6,3.93.5.5,0,0,0-.2.7l1.77,2.92a.51.51,0,0,0,.43.24.59.59,0,0,0,.22,0,30.37,30.37,0,0,1,13.47-3.21,35.88,35.88,0,0,1,14.49,3.3.45.45,0,0,0,.2,0,.52.52,0,0,0,.43-.24l1.8-3a.53.53,0,0,0,0-.41.55.55,0,0,0-.27-.31A41.12,41.12,0,0,0,25.76,38Z"/><path class="cls-9" d="M22.28,8V9.17L25,12.25v5.33a1.16,1.16,0,0,0,2.32,0V12.25l2.36-3.37V8Z"/><path class="cls-8" d="M25.78,30.73a11.79,11.79,0,0,0-5.67-1.34l-.59,0-1.19-9.54h.14l.81,0A17.26,17.26,0,0,1,25.89,21l.08,0v9.77Z"/><path class="cls-9" d="M19.28,20a16.86,16.86,0,0,1,6.56,1.17v9.48a11.91,11.91,0,0,0-5.73-1.35h-.48L18.47,20c.27,0,.54,0,.81,0m0-.25c-.28,0-.55,0-.82,0h-.27l0,.27,1.16,9.29,0,.22h.7a11.73,11.73,0,0,1,5.61,1.32l.37.2V21L26,20.91a17.19,17.19,0,0,0-6.67-1.19Z"/><path class="cls-8" d="M25.7,21.06l.08,0a17.26,17.26,0,0,1,6.61-1.18l.81,0h.14l-1.18,9.54-.6,0a11.79,11.79,0,0,0-5.67,1.34l-.19.1Z"/><path class="cls-9" d="M32.39,20c.27,0,.54,0,.81,0l-1.15,9.29h-.48a11.92,11.92,0,0,0-5.74,1.35V21.14A16.89,16.89,0,0,1,32.39,20m0-.25a17.1,17.1,0,0,0-6.66,1.19l-.15.07V31l.37-.2a11.75,11.75,0,0,1,5.62-1.32h.7l0-.22L33.45,20l0-.27h-.27c-.27,0-.54,0-.82,0Z"/><path class="cls-8" d="M25.78,30.73a11.79,11.79,0,0,0-5.67-1.34l-.59,0-1.19-9.54h.14l.81,0A17.26,17.26,0,0,1,25.89,21l.08,0v9.77Z"/><path class="cls-9" d="M19.28,20a16.86,16.86,0,0,1,6.56,1.17v9.48a11.91,11.91,0,0,0-5.73-1.35h-.48L18.47,20c.27,0,.54,0,.81,0m0-.25c-.28,0-.55,0-.82,0h-.27l0,.27,1.16,9.29,0,.22h.7a11.73,11.73,0,0,1,5.61,1.32l.37.2V21L26,20.91a17.19,17.19,0,0,0-6.67-1.19Z"/><path class="cls-8" d="M25.7,21.06l.08,0a17.26,17.26,0,0,1,6.61-1.18l.81,0h.14l-1.18,9.54-.6,0a11.79,11.79,0,0,0-5.67,1.34l-.19.1Z"/><path class="cls-9" d="M32.39,20c.27,0,.54,0,.81,0l-1.15,9.29h-.48a11.92,11.92,0,0,0-5.74,1.35V21.14A16.89,16.89,0,0,1,32.39,20m0-.25a17.1,17.1,0,0,0-6.66,1.19l-.15.07V31l.37-.2a11.75,11.75,0,0,1,5.62-1.32h.7l0-.22L33.45,20l0-.27h-.27c-.27,0-.54,0-.82,0Z"/><path class="cls-10" d="M18.66,21.52a12.77,12.77,0,0,1,7,1"/><path class="cls-10" d="M18.79,23.18a12.71,12.71,0,0,1,7,1.3"/><path class="cls-10" d="M18.89,24.7a11.34,11.34,0,0,1,6.89,1.58"/><path class="cls-10" d="M19.08,26.44a9.23,9.23,0,0,1,6.76,1.75"/><path class="cls-10" d="M19.26,27.83a11.27,11.27,0,0,1,6.63,1.8"/><path class="cls-10" d="M33,21.6a12.74,12.74,0,0,0-7,1"/><path class="cls-10" d="M32.87,23.25a12.94,12.94,0,0,0-7,1.3"/><path class="cls-10" d="M32.77,24.77a11.37,11.37,0,0,0-6.9,1.58"/><path class="cls-10" d="M32.58,26.51a9.26,9.26,0,0,0-6.77,1.75"/><path class="cls-10" d="M32.4,27.9a11,11,0,0,0-6.54,1.73"/><line class="cls-10" x1="25.83" y1="30.77" x2="25.83" y2="20.87"/><text class="cls-11" transform="translate(20.47 27.5) scale(0.69 1)">YKB</text><path class="cls-9" d="M12.72,43.93l-.23-.55-.85-.52a3.49,3.49,0,0,1,.34-.15l.55.37c0-.26.06-.39.11-.66l.33-.13c-.09.39-.13.58-.2,1l.23.55Z"/><path class="cls-9" d="M14.71,43.14l-.31.11L14.17,43l-.56.21c0,.14,0,.21,0,.35l-.3.12c0-.62,0-.92,0-1.54l.31-.12C14.08,42.46,14.29,42.69,14.71,43.14ZM14,42.81l-.38-.42V43Z"/><path class="cls-9" d="M15,43l-.19-.56-.8-.59.34-.12.52.41.15-.64.34-.11-.27,1,.19.57Z"/><path class="cls-9" d="M17.07,42.39l-.31.09-.22-.28-.57.18c0,.13,0,.2,0,.34l-.3.1c0-.61.06-.92.12-1.53l.32-.1C16.49,41.67,16.69,41.9,17.07,42.39ZM16.38,42,16,41.56c0,.22,0,.33,0,.56Z"/><path class="cls-9" d="M17,41.92l.28-.1a.36.36,0,0,0,.15.17.36.36,0,0,0,.23,0,.34.34,0,0,0,.19-.11.17.17,0,0,0,0-.15.11.11,0,0,0-.05-.08.21.21,0,0,0-.12,0h-.25a.83.83,0,0,1-.36-.05.36.36,0,0,1-.21-.24.3.3,0,0,1,0-.21.37.37,0,0,1,.14-.19.91.91,0,0,1,.28-.12.68.68,0,0,1,.45,0,.46.46,0,0,1,.22.27l-.29.09a.24.24,0,0,0-.12-.14.28.28,0,0,0-.2,0,.31.31,0,0,0-.19.1.1.1,0,0,0,0,.1.12.12,0,0,0,.07.07,1,1,0,0,0,.29,0,1.16,1.16,0,0,1,.35,0,.39.39,0,0,1,.3.3.39.39,0,0,1,0,.24.39.39,0,0,1-.16.2.71.71,0,0,1-.29.13.62.62,0,0,1-.45,0A.51.51,0,0,1,17,41.92Z"/><path class="cls-9" d="M19.83,41.74l-.32.06a2.9,2.9,0,0,0-.19-.29l-.57.12L18.7,42l-.3.07c.09-.6.14-.9.25-1.51l.31-.07C19.32,41,19.49,41.22,19.83,41.74Zm-.65-.45-.31-.47c0,.22-.05.33-.08.56Z"/><path class="cls-9" d="M20,41.71c-.11-.56-.16-.84-.27-1.4l.3-.05c.31.33.46.49.76.83l-.15-.94.28,0c.09.56.13.84.22,1.4l-.29.05-.75-.82.17.92Z"/><path class="cls-9" d="M22,41.39c-.07-.56-.11-.85-.18-1.41l.3,0,.08.63c.21-.28.32-.42.54-.69l.41,0-.51.6c.27.32.4.48.66.81l-.37,0-.48-.62-.21.27.05.42Z"/><path class="cls-9" d="M23.46,41.24c-.05-.57-.07-.85-.12-1.42l1.12-.08V40l-.81.06,0,.31.75-.05v.24l-.74.05,0,.38.82,0v.24C24.12,41.18,23.9,41.2,23.46,41.24Z"/><path class="cls-9" d="M24.82,41.15c0-.56,0-.85-.07-1.41h.31l0,1.17.74,0v.24C25.43,41.12,25.23,41.13,24.82,41.15Z"/><path class="cls-9" d="M26,39.7h.3v.77a1.17,1.17,0,0,0,0,.23.28.28,0,0,0,.09.14.3.3,0,0,0,.2.06.36.36,0,0,0,.19,0,.2.2,0,0,0,.08-.12,1.49,1.49,0,0,0,0-.24l0-.79h.3l0,.74a1.48,1.48,0,0,1,0,.36.51.51,0,0,1-.09.18.46.46,0,0,1-.18.11.72.72,0,0,1-.28,0,.83.83,0,0,1-.31,0,.43.43,0,0,1-.17-.12.51.51,0,0,1-.09-.16,1.6,1.6,0,0,1,0-.36Z"/><path class="cls-9" d="M28.83,41.21l-.32,0-.11-.33-.59,0-.13.31h-.31c.24-.56.37-.84.63-1.39h.32C28.53,40.33,28.63,40.62,28.83,41.21Zm-.51-.6-.18-.54-.22.52Z"/><path class="cls-9" d="M29,41.22l.11-1.42.64.06a1.39,1.39,0,0,1,.35.07.38.38,0,0,1,.2.39.34.34,0,0,1-.13.25.51.51,0,0,1-.3.1,1,1,0,0,1,.15.13c0,.05.08.13.14.25s.09.18.14.3l-.34,0L29.75,41a1.76,1.76,0,0,0-.13-.22.15.15,0,0,0-.09-.07l-.14,0h-.06l-.06.59Zm.37-.79.22,0h.27a.19.19,0,0,0,.09-.05.21.21,0,0,0,0-.23.17.17,0,0,0-.11-.06l-.22,0-.23,0Z"/><path class="cls-9" d="M31.19,40.94l0-.24.64.1-.09.56a1,1,0,0,1-.29.11,1.09,1.09,0,0,1-.36,0,.76.76,0,0,1-.38-.15.58.58,0,0,1-.22-.29.86.86,0,0,1,0-.39.79.79,0,0,1,.14-.38.68.68,0,0,1,.32-.23.89.89,0,0,1,.37,0,.75.75,0,0,1,.42.18.47.47,0,0,1,.16.33h-.31a.31.31,0,0,0-.09-.18.4.4,0,0,0-.21-.09.41.41,0,0,0-.33.07.48.48,0,0,0-.16.34.54.54,0,0,0,.06.39.39.39,0,0,0,.29.16.6.6,0,0,0,.19,0l.17-.06,0-.18Z"/><path class="cls-9" d="M33.3,41.84,33,41.77a3.43,3.43,0,0,1-.06-.34l-.58-.11-.18.3-.31,0c.32-.52.48-.78.82-1.3l.32.06C33.13,40.93,33.19,41.23,33.3,41.84Zm-.42-.66c0-.22-.06-.33-.11-.56l-.29.48Z"/><path class="cls-9" d="M34.25,40.59l.6.14.26.08a.45.45,0,0,1,.13.1.42.42,0,0,1,.09.14.25.25,0,0,1,0,.17.32.32,0,0,1-.28.25.42.42,0,0,1,.17.18.28.28,0,0,1,0,.22.32.32,0,0,1-.09.17.36.36,0,0,1-.16.11.47.47,0,0,1-.21,0l-.35-.08L33.94,42Zm.25.3-.08.32.2,0,.21.05a.25.25,0,0,0,.13,0,.14.14,0,0,0,.07-.1.14.14,0,0,0,0-.11.16.16,0,0,0-.1-.08l-.25-.07Zm-.13.55-.09.37.27.06.2.05.12,0a.18.18,0,0,0,.07-.11.14.14,0,0,0,0-.11.15.15,0,0,0-.07-.09,1.2,1.2,0,0,0-.25-.08Z"/><path class="cls-9" d="M36.64,42.71l-.31-.1c0-.13,0-.2,0-.34l-.57-.17-.2.28-.3-.08c.36-.49.55-.73.94-1.21l.31.09C36.56,41.79,36.59,42.1,36.64,42.71Zm-.36-.7-.05-.56-.34.45Z"/><path class="cls-9" d="M37,42.81l.37-1.12-.43-.14.07-.22c.46.14.69.22,1.16.38l-.08.23-.43-.15-.38,1.12Z"/><path class="cls-9" d="M38.94,43.53l-.3-.12c0-.14,0-.21,0-.35l-.56-.2-.22.26-.3-.11c.4-.46.61-.69,1-1.14l.31.12C38.92,42.61,38.93,42.91,38.94,43.53Zm-.31-.72c0-.23,0-.34,0-.57l-.37.42Z"/><path class="cls-9" d="M39.08,43.59l.53-1.32.43.18c0,.4-.07.6-.12,1,.25-.32.38-.47.64-.78l.42.19-.58,1.29L40.15,44l.45-1c-.29.36-.44.54-.72.91l-.27-.12c.07-.45.1-.68.15-1.14l-.42,1Z"/></svg>